<?xml version="1.0" encoding="UTF-8" standalone="no"?>
<svg
   xmlns:dc="http://purl.org/dc/elements/1.1/"
   xmlns:cc="http://creativecommons.org/ns#"
   xmlns:rdf="http://www.w3.org/1999/02/22-rdf-syntax-ns#"
   xmlns:svg="http://www.w3.org/2000/svg"
   xmlns="http://www.w3.org/2000/svg"
   viewBox="0 0 4666.6665 2666.6667"
   height="2666.6667"
   width="4666.6665"
   xml:space="preserve"
   id="svg2"
   version="1.1"><metadata
     id="metadata8"><rdf:RDF><cc:Work
         rdf:about=""><dc:format>image/svg+xml</dc:format><dc:type
           rdf:resource="http://purl.org/dc/dcmitype/StillImage" /></cc:Work></rdf:RDF></metadata><defs
     id="defs6" /><g
     transform="matrix(1.3333333,0,0,-1.3333333,0,2666.6667)"
     id="g10"><g
       transform="scale(0.1)"
       id="g12"><g
         transform="scale(2.14724)"
         id="g14"><path
           id="path16"
           style="fill:#ffffff;fill-opacity:1;fill-rule:nonzero;stroke:none"
           d="M 16300,0 H 0 V 9314.29 H 16300 V 0" /></g><g
         transform="scale(1.2221)"
         id="g18"><path
           id="path20"
           style="fill:#96d9c9;fill-opacity:1;fill-rule:nonzero;stroke:none"
           d="m 16059.9,9829.58 191.5,185.32 c -59.9,334.9 -374.2,496.2 -581.1,518.1 -557.3,59.2 -841.4,-324 -960.9,-938.48 -218.2,-1121.63 56.5,-5831.34 56.5,-5831.34 20.6,125.11 1534.1,4854.7 1495.3,6154.13 l -201.3,-87.73" /></g><path
         id="path22"
         style="fill:#3c8f7c;fill-opacity:1;fill-rule:nonzero;stroke:none"
         d="m 10317.2,7493 -29,-214.7 -69.5,248.4 c -195.3,61.5 -365.02,82.6 -499.49,52 -1201.7,-273.1 874.89,-1925.8 874.89,-1925.8 0,0 -661.82,415.5 -1302.76,678.6 l -8.14,-217.7 -81.98,246 c -498.04,194.9 -960.09,285 -1052.42,3.5 -86.92,-265 88,-515.8 389,-739.2 l 346,-12.1 -203.96,-85.6 c 695.13,-445.2 1845.06,-763.7 2241.96,-836.1 -379.7,59.6 -1307.94,180.4 -1858.06,61.7 l 86.33,-143.7 -217.23,108.6 C 8740.29,4654.8 8620.7,4552 8633.58,4390.1 8658.2,4080.5 10001.4,3969 10001.4,3969 l 4907,45.6 27.3,-13.7 c 0,0 -3036.6,2912.6 -4618.5,3492.1" /><g
         transform="scale(1.58904)"
         id="g24"><path
           id="path26"
           style="fill:#50bfa5;fill-opacity:1;fill-rule:nonzero;stroke:none"
           d="m 16179.7,2913.15 c -59.6,276.52 -664.3,357.82 -1435.2,206.22 274.5,93.77 651.6,307.3 846.9,404.84 l -133.6,85.02 268.3,-12.52 c 219.4,128.5 329.1,254.68 257.4,368.84 -53.5,85.21 -171,120.7 -330.1,120.26 l -83.9,-150.03 17.4,147.95 c -401.5,-23.22 -492.6,42.35 -1034.3,-176.58 338.5,175.7 387.4,230.2 409.6,300.74 l -183.3,80.24 h 214.8 c 173.7,186.78 449.2,556.38 334.9,726.67 -94.3,140.59 -508.2,-54.5 -772.5,-155.88 l -112.4,-252.86 22.8,216.04 c -840.1,-365.94 -555.4,-72.3 -555.4,-72.3 0,0 877,1814.16 360.4,1773.38 -204,-16.1 -423.3,-139.03 -638.7,-335.97 l -5.5,-180.36 -64.1,114.47 c -156.8,-153.8 -312.2,-340.08 -460.5,-540.01 201.1,422.33 353.6,837.16 368.7,1146.01 l -153.5,18.61 151.5,105.36 c -14.2,156.05 -76.1,274.06 -201.2,336.45 -192.2,95.69 -393.7,-49.09 -592.2,-336.82 l 49,-259.68 -123.2,145.5 C 11891.2,5578.47 11241.4,2727 11241.4,2727 l -51.5,-154.69 2087.8,-103.08 c 0,0 3022.3,-114.72 2902,443.92" /></g><g
         transform="scale(1.68025)"
         id="g28"><path
           id="path30"
           style="fill:#184655;fill-opacity:1;fill-rule:nonzero;stroke:none"
           d="M 16266,2322.21 H 4966.33 c -18.78,0 -34,14.64 -34,32.73 0,18.04 15.22,32.68 34,32.68 H 16266 c 18.8,0 34,-14.64 34,-32.68 0,-18.09 -15.2,-32.73 -34,-32.73" /></g><g
         transform="scale(1.27798)"
         id="g32"><path
           id="path34"
           style="fill:#86b1f2;fill-opacity:1;fill-rule:nonzero;stroke:none"
           d="m 16300,4580.82 h -6088.7 c -232.52,0 -421.02,170.97 -421.02,382.01 v 227.15 c 0,210.96 188.5,382.01 421.02,382.01 H 16300 v 0 c -278.5,-276.14 -283.3,-698.29 -11.2,-979.67 l 11.2,-11.5" /></g><g
         transform="scale(1.27131)"
         id="g36"><path
           id="path38"
           style="fill:#fae0b2;fill-opacity:1;fill-rule:nonzero;stroke:none"
           d="m 16299.8,5487.08 h -3080 c -212.1,0 -384.1,-171.95 -384.1,-384.09 v 0 c 0,-212.06 172,-384.01 384.1,-384.01 H 16300 c -143.9,235.58 -143.6,533.07 -0.2,768.1" /></g><g
         transform="scale(1.25765)"
         id="g40"><path
           id="path42"
           style="fill:#355389;fill-opacity:1;fill-rule:nonzero;stroke:none"
           d="m 16284.9,6763.17 c 13.6,23.3 -7,50.25 -38.3,50.25 h -4927.4 c -386.2,0 -699.2,-258.34 -699.2,-577.03 v 0 c 0,-318.77 313,-577.1 699.2,-577.1 h 4928.7 c 31.5,0 52.1,27.11 38.4,50.48 v 0 c -195.1,333.57 -194.6,721.35 -1.4,1053.4" /></g><g
         transform="scale(1.254)"
         id="g44"><path
           id="path46"
           style="fill:#fae0b2;fill-opacity:1;fill-rule:nonzero;stroke:none"
           d="m 16292.9,6708.69 h -3315.5 c -244.9,0 -443.5,-198.48 -443.5,-443.46 v -33.25 c 0,-244.9 198.6,-443.46 443.5,-443.46 H 16300 c -148.6,294.89 -150.2,625.44 -7.1,920.17" /></g><g
         transform="scale(1.07855)"
         id="g48"><path
           id="path50"
           style="fill:#fae0b2;fill-opacity:1;fill-rule:nonzero;stroke:none"
           d="m 11996.7,8004.62 h 3707.9 c 328.8,0 595.4,287.42 595.4,641.97 v 0 c 0,354.64 -266.6,642.05 -595.4,642.05 h -3707.9 v 0 c 283.5,-355.93 294.5,-878.01 26.5,-1247.58 l -26.5,-36.44" /></g><g
         transform="scale(1.22377)"
         id="g52"><path
           id="path54"
           style="fill:#466eb6;fill-opacity:1;fill-rule:nonzero;stroke:none"
           d="m 14322.7,7620.57 v 0 c 0,312.56 -237.6,565.86 -530.7,565.86 h -3278.2 c -15.3,0 -27.7,13.3 -27.6,29.6 v 0 c 0.2,16.08 12.5,29.03 27.6,29.03 h 5200.4 c 323.5,0 585.8,-279.57 585.8,-624.49 v 0 c 0,-344.84 -262.3,-624.47 -585.8,-624.47 h -5200.4 c -15.1,0 -27.4,13 -27.6,29.09 v 0 c -0.1,16.27 12.3,29.58 27.6,29.58 H 13792 c 293.1,0 530.7,253.32 530.7,565.8" /></g><g
         transform="scale(1.09271)"
         id="g56"><path
           id="path58"
           style="fill:#ff4c16;fill-opacity:1;fill-rule:nonzero;stroke:none"
           d="m 16300,7166.76 h -391.7 c -84.2,0 -152.5,-26.08 -152.5,-58.3 v -5.21 h 544.2 v 63.51" /></g><g
         transform="scale(1.11515)"
         id="g60"><path
           id="path62"
           style="fill:#f47458;fill-opacity:1;fill-rule:nonzero;stroke:none"
           d="m 16299.4,6879.18 c 0,79.19 -100.3,143.39 -223.9,143.39 H 15583 c 93.8,0 169.8,-48.69 169.8,-108.68 l -2.3,-1536.84 272.1,197.64 277.4,-197.64 -0.6,1502.13" /></g><g
         transform="scale(1.47426)"
         id="g64"><path
           id="path66"
           style="fill:#b75742;fill-opacity:1;fill-rule:nonzero;stroke:none"
           d="M 16300,3972.64 H 8457.41 c -243.52,0 -440.97,-197.39 -440.97,-440.9 v -370.96 c 0,-243.51 197.45,-440.97 440.97,-440.97 H 16300 l -4.1,4.27 c -335.5,349.26 -333.7,901.61 4.1,1248.56" /></g><g
         transform="scale(1.4617)"
         id="g68"><path
           id="path70"
           style="fill:#fae0b2;fill-opacity:1;fill-rule:nonzero;stroke:none"
           d="m 16300,3819.73 h -4228.5 c -245.6,0 -444.8,-199.08 -444.8,-444.76 v 0 c 0,-245.6 199.2,-444.75 444.8,-444.75 h 4228.4 c -155.4,275.43 -155.1,614.35 0.1,889.51" /></g><g
         transform="scale(1.27552)"
         id="g72"><path
           id="path74"
           style="fill:#13375b;fill-opacity:1;fill-rule:nonzero;stroke:none"
           d="m 16300,3865.01 h -393 c -84.5,0 -153.1,-68.52 -153.1,-153.04 v -13.72 h 546.1 v 166.76" /></g><g
         transform="scale(1.38633)"
         id="g76"><path
           id="path78"
           style="fill:#355389;fill-opacity:1;fill-rule:nonzero;stroke:none"
           d="m 14650.4,3555.52 c 86.4,0.07 215.4,-73.08 288.3,-163.32 l 857.5,-1063.6 503.8,0.29 -815.7,1011.52 c -95.9,119.02 -266.1,215.47 -380.1,215.39 l -453.8,-0.28" /></g><path
         id="path80"
         style="fill:#b75742;fill-opacity:1;fill-rule:nonzero;stroke:none"
         d="m 9847.7,4171.6 243.6,56.9 c 0,0 197.6,-12.5 382,24.9 0,0 18.6,-48.9 26.6,-150.1 1.4,-17.4 -23.7,-104.3 -41,-107 -62.7,-9.6 -173.1,1.3 -368.9,-3.2 0,0 -308.24,-36.4 -473.2,18 -164.96,54.5 230.9,160.5 230.9,160.5" /><path
         id="path82"
         style="fill:#184655;fill-opacity:1;fill-rule:nonzero;stroke:none"
         d="m 12539.3,8159.3 c 13.5,-141.4 132.2,-191.3 242.9,-280.7 74.3,-60.1 61.5,-222.4 4.7,-323.2 -143.8,-255.2 -21.3,-286.7 94.6,-474.2 279.2,-451.6 -585.9,-551.4 -688.5,-585 -102.7,-33.6 -172.3,-74.4 -233,-67.6 -183.1,20.2 -350.5,280.4 -443.4,521 -93,240.6 132.6,253.3 144.2,391.5 11.5,138.2 -252.5,167.9 -174.2,428.9 84.6,282.4 204.2,521.7 362.9,607.6 262.7,142 582,-6.5 654.6,-120.6 21.6,-34 32.2,-66.8 35.2,-97.7" /><path
         id="path84"
         style="fill:#fae0b2;fill-opacity:1;fill-rule:nonzero;stroke:none"
         d="m 12559.6,5068 c 22.8,-56.6 147.9,-256.9 147.9,-256.9 l -1756.7,-17.4 -27.4,360.4 c 482.3,3.9 959.1,217.1 1403.5,369.7 11.3,-27.2 221.7,-428.3 232.7,-455.8" /><path
         id="path86"
         style="fill:#50bfa5;fill-opacity:1;fill-rule:nonzero;stroke:none"
         d="m 11314.3,6450.3 c 0,0 94.4,665.9 246.1,735 151.7,69.2 973.4,-26.6 1096.3,-101.7 123,-75.1 -81.8,-857.2 -113.2,-1075.9 -1.9,-13.1 -3.9,-26.2 -6.1,-39.2 -51.9,-315.8 -21.9,-638.9 89.5,-937.7 -449.6,-136.5 -566.2,-211.6 -1048.4,-198.2 l -179.9,1053.2 c 0,0 -143.2,509.7 -84.3,564.5" /><path
         id="path88"
         style="fill:#f7a491;fill-opacity:1;fill-rule:nonzero;stroke:none"
         d="m 12212.9,7623.6 c 0,0 37.8,-366.6 70.2,-456.5 32.4,-90 -86.8,-272.9 -281.1,-323.5 -194.3,-50.7 -52.9,195.3 -57.5,290.4 -4.6,95 -23.4,545 -23.4,545 l 291.8,-55.4" /><path
         id="path90"
         style="fill:#f47458;fill-opacity:1;fill-rule:nonzero;stroke:none"
         d="m 12217.5,7581.5 c -24.2,-27.5 -53.4,-52.4 -88.9,-73.3 -73.4,-43.3 -140.6,-52.8 -198.6,-39.5 -4.8,113.4 -8.9,210.3 -8.9,210.3 l 291.8,-55.4 c 0,0 1.7,-16.1 4.6,-42.1" /><path
         id="path92"
         style="fill:#f7a491;fill-opacity:1;fill-rule:nonzero;stroke:none"
         d="m 12144.9,8293.2 c 0,0 114.7,-30.3 182.2,-142.2 67.4,-111.9 104.9,-435.6 -135.7,-577.4 -240.6,-141.8 -415.9,77.3 -411.5,284.8 4.4,207.4 58.6,482.4 365,434.8" /><path
         id="path94"
         style="fill:#f7a491;fill-opacity:1;fill-rule:nonzero;stroke:none"
         d="m 11706.9,7945.2 c 2.6,-53.8 30.2,-96.2 61.4,-94.6 31.3,1.6 54.6,46.6 51.9,100.4 -2.6,53.9 -30.1,96.3 -61.4,94.7 -31.3,-1.6 -54.5,-46.6 -51.9,-100.5" /><path
         id="path96"
         style="fill:#f7a491;fill-opacity:1;fill-rule:nonzero;stroke:none"
         d="m 12320.4,7862.7 c -18.9,-53.3 -5.2,-106.9 30.6,-119.8 35.9,-12.8 80.4,19.9 99.4,73.2 19,53.3 5.3,106.9 -30.6,119.8 -35.9,12.8 -80.4,-19.9 -99.4,-73.2" /><path
         id="path98"
         style="fill:#3c8f7c;fill-opacity:1;fill-rule:nonzero;stroke:none"
         d="m 12656.7,7083.6 c 0,0 -140.1,-73.5 -226,-278.6 -85.9,-205.1 206.7,-1251.5 269.1,-1318.5 62.4,-67.1 235,-77.5 264.4,86.3 29.5,163.9 -69.8,1459 -307.5,1510.8" /><path
         id="path100"
         style="fill:#9bc1f9;fill-opacity:1;fill-rule:nonzero;stroke:none"
         d="M 11818.8,7223.7 12060.3,5773 11120,5621.3 10821.5,6978.4 c 0,0 773.6,313.2 997.3,245.3" /><path
         id="path102"
         style="fill:#9bc1f9;fill-opacity:1;fill-rule:nonzero;stroke:none"
         d="m 10003.9,7178.9 c 89.8,35.4 187.8,44.4 282.6,25.8 176,-34.4 455.7,-105.7 568,-226.3 169.4,-182.1 326.2,-1386.7 326.2,-1386.7 l -730.9,163.9 -445.9,1423.3 v 0" /><path
         id="path104"
         style="fill:#f7cc7f;fill-opacity:1;fill-rule:nonzero;stroke:none"
         d="m 12518.6,4697.3 c -122.9,341.4 -1515.7,1584.1 -1884.4,1488.5 l 198,-757.9 c 0,0 413.8,-1233.7 819.3,-1392.9 405.5,-159.1 785.2,20.5 785.2,20.5 0,0 204.8,300.5 81.9,641.8" /><path
         id="path106"
         style="fill:#f7a491;fill-opacity:1;fill-rule:nonzero;stroke:none"
         d="m 12018.5,6691.1 c -17.3,-34.7 93.4,-96.6 125.6,-120.1 32.2,-23.4 165.7,0.7 165.7,0.7 0,0 -272,158 -291.3,119.4" /><path
         id="path108"
         style="fill:#f48c7f;fill-opacity:1;fill-rule:nonzero;stroke:none"
         d="m 10828.5,5066.9 c 0,0 -353.9,-735.5 -355.1,-812.1 -1.7,-110.3 -511.78,-80 -401,-32.9 25.5,10.9 105.8,51.5 111.9,56.9 33,28.3 326.7,941.7 326.7,941.7 l 317.5,-153.6" /><path
         id="path110"
         style="fill:#f7cc7f;fill-opacity:1;fill-rule:nonzero;stroke:none"
         d="m 10941.4,5946.8 c -17.1,18.9 -196.5,90.2 -334.6,-81.9 -138,-172 -402.8,-1511.2 -402.8,-1511.2 l 325.5,-31.9 c 0,0 810.1,1185.8 411.9,1625" /><path
         id="path112"
         style="fill:#f47458;fill-opacity:1;fill-rule:nonzero;stroke:none"
         d="m 9888.52,6951 418.68,-1220.7 c 16.8,-49 58.6,-84.2 108.3,-91.2 392.6,-55.5 597.4,-83.8 597.4,-83.8 0,0 76.6,-3.9 157.8,-5 l 898.6,95.9 c 78.2,8.4 132.7,84.1 118.1,164 l -218.7,1198.6 c -13.5,74.1 -81.6,123.5 -153.4,111.4 l -864.5,-145.3 c -76.4,2 -150.8,4.1 -227.3,6.1 l -680.1,152.3 c -102.78,23 -190.07,-79.7 -154.88,-182.3" /><path
         id="path114"
         style="fill:#f7a491;fill-opacity:1;fill-rule:nonzero;stroke:none"
         d="m 11717.4,6357.3 c 0,0 241.2,-44.7 323.6,-42.3 82.3,2.5 189.1,-23.5 189.1,-23.5 0,0 269.2,-633 307.8,-703.6 115.3,-210.8 435,-185.9 429.7,-10.1 -4.2,139.6 -550.2,1015.6 -695.4,1011.2 -145.1,-4.4 -599.5,90.4 -613.2,32.6 -7.3,-31 418.5,-45.5 351.3,-71.9 -41.7,-16.4 -375,21.1 -373.8,-18.2 1.2,-39.2 301.1,-42.9 333.4,-73.3 32.3,-30.5 -319.2,37.2 -317.2,-29.4 1.1,-33.5 309.7,-9.3 343.5,-60.2 14,-21.1 -304.3,54.6 -278.8,-11.3" /><path
         id="path116"
         style="fill:#f7a491;fill-opacity:1;fill-rule:nonzero;stroke:none"
         d="m 10091.1,6460.6 c -18.9,8.1 -40.9,-2.5 -45.5,-22.6 -4.8,-20.5 -5.8,-45.3 9.4,-61.7 30.3,-32.5 241.2,-63.6 242.4,-32.2 0.8,24.1 -140.7,88.1 -206.3,116.5" /><path
         id="path118"
         style="fill:#f7a491;fill-opacity:1;fill-rule:nonzero;stroke:none"
         d="m 10050.1,6378.6 c 0,0 -21.1,-79 -2.8,-79.7 18.3,-0.7 246.5,-23.3 256.7,3.9 10.1,27.1 -224.5,91.8 -253.9,75.8" /><path
         id="path120"
         style="fill:#f7a491;fill-opacity:1;fill-rule:nonzero;stroke:none"
         d="m 10040.3,6297 c 0,0 -6.5,-35.1 12.4,-55.4 18.9,-20.3 231.4,-7 239.2,26.7 7.8,33.8 -244.1,54.6 -251.6,28.7" /><path
         id="path122"
         style="fill:#f7a491;fill-opacity:1;fill-rule:nonzero;stroke:none"
         d="m 10072.7,6222.8 c 0,0 -0.3,-26.9 10.4,-38.4 10.7,-11.5 167.7,4.5 183.3,38 15.6,33.4 -175.4,35.1 -193.7,0.4" /><path
         id="path124"
         style="fill:#f7a491;fill-opacity:1;fill-rule:nonzero;stroke:none"
         d="m 10605.1,4366.2 c 0,0 -74.9,-271.3 -150.2,-450.6 -49.3,-117.5 -62,-234.5 -94.6,-293.1 -82.5,-148.2 -217.4,-154.2 -324.5,-65.2 -107.07,89.1 36.6,464.6 36.6,464.6 l 338.1,475.7 194.6,-131.4" /><path
         id="path126"
         style="fill:#f47458;fill-opacity:1;fill-rule:nonzero;stroke:none"
         d="m 10360.3,3622.5 c 29,52 42.4,150.3 79.5,253.8 -51.7,-30 -138.5,-52.6 -185.7,-40 -173,46.3 -181.7,185.6 -181.7,185.6 0,0 -180.35,-384.9 -73.24,-473.9 107.14,-89 278.64,-73.7 361.14,74.5" /><path
         id="path128"
         style="fill:#b75742;fill-opacity:1;fill-rule:nonzero;stroke:none"
         d="m 10950.9,6974.9 276.8,-1433 -166.6,10 -48.2,3.4 -289.2,1425.6 227.2,-6" /><path
         id="path130"
         style="fill:#fae0b2;fill-opacity:1;fill-rule:nonzero;stroke:none"
         d="m 11915.4,4118.8 c 94.8,-174.4 283.7,-201.5 453.8,-187.2 188.1,15.8 395.2,118.7 450.8,334.6 59.4,230.7 -18.7,516.1 -155.7,697.1 -701,926.2 -706.4,1017.5 -985.5,1140.6 -301.3,132.8 -1420.2,-1778.7 -1420.2,-1778.7 l 307.3,-157 c 0,0 460.8,385.2 755.3,723 34.6,39.7 133.2,245.1 133.2,245.1 0,0 398.3,-902.2 461,-1017.5" /><path
         id="path132"
         style="fill:#f7cc7f;fill-opacity:1;fill-rule:nonzero;stroke:none"
         d="m 11925.7,9689.8 c -296.3,-44.8 -389.1,-431.6 -145.6,-608.4 43.7,-31.7 73.7,-79 86,-131.6 l 42.4,-181.1 c 11.7,-49.9 59.7,-82.5 110.4,-74.8 l 112.2,16.9 c 50.7,7.7 87,53 83.4,104.1 -13.1,186.6 -31.4,254.4 30.2,336.7 180.4,240.9 -22.6,583 -319,538.2" /><path
         id="path134"
         style="fill:#fae0b2;fill-opacity:1;fill-rule:nonzero;stroke:none"
         d="m 11990.4,8835.3 c -0.1,0 -0.2,0 -0.3,0 -14.9,-2.1 -28.7,8.3 -30.8,23.2 l -55.2,394.9 -92.5,79.2 c -11.4,9.8 -12.7,27 -2.9,38.4 9.8,11.5 27,12.8 38.4,3 l 108.2,-92.6 58,-415.3 c 2.1,-14.8 -8.1,-28.5 -22.9,-30.8" /><path
         id="path136"
         style="fill:#fae0b2;fill-opacity:1;fill-rule:nonzero;stroke:none"
         d="m 12127.8,8839.3 c 0.1,0 0.2,0 0.3,0 14.9,2.4 25,16.4 22.5,31.3 l -63.9,393.5 64.9,103 c 8,12.8 4.2,29.6 -8.5,37.6 -12.8,8.1 -29.6,4.3 -37.6,-8.5 l -76,-120.5 67.3,-413.9 c 2.4,-14.7 16.3,-24.8 31,-22.5" /><path
         id="path138"
         style="fill:#96d9c9;fill-opacity:1;fill-rule:nonzero;stroke:none"
         d="m 11864.8,8954.2 c 0.4,-1.5 0.9,-2.9 1.3,-4.4 l 42.4,-181.1 c 11.7,-49.9 59.7,-82.5 110.4,-74.8 l 112.2,16.9 c 50.7,7.7 87,53 83.4,104.1 -5.8,83 -12.7,142.5 -13.1,190.2 l -336.6,-50.9" /><path
         id="path140"
         style="fill:#f47458;fill-opacity:1;fill-rule:nonzero;stroke:none"
         d="m 11869.9,12572.7 -117.4,169.8 -206.4,-0.5 c -23.5,0 -36.8,26.9 -22.6,45.6 l 125.2,164.1 -64.2,196.2 c -7.3,22.3 14.1,43.3 36.3,35.5 l 194.8,-68.3 166.7,121.7 c 19,13.9 45.6,-0.1 45.1,-23.6 l -4.8,-206.3 167.2,-121 c 19.1,-13.7 14,-43.4 -8.5,-50.1 l -197.7,-59.2 -63.4,-196.4 c -7.2,-22.4 -36.9,-26.8 -50.3,-7.5" /><g
         transform="scale(1.41038)"
         id="g142"><path
           id="path144"
           style="fill:#9bc1f9;fill-opacity:1;fill-rule:nonzero;stroke:none"
           d="m 16123.5,8696.3 -61.2,88.42 -107.5,-0.23 c -12.2,-0.04 -19.2,14 -11.8,23.72 l 65.2,85.48 -33.4,102.17 c -3.9,11.63 7.3,22.59 18.9,18.53 l 101.5,-35.59 86.7,63.38 c 10,7.22 23.9,-0.04 23.5,-12.28 l -2.5,-107.47 87.2,-63 c 9.9,-7.17 7.3,-22.61 -4.5,-26.12 l -102.9,-30.83 -33,-102.31 c -3.8,-11.65 -19.3,-13.94 -26.2,-3.87" /></g><g
         transform="scale(1.2516)"
         id="g146"><path
           id="path148"
           style="fill:#f48c7f;fill-opacity:1;fill-rule:nonzero;stroke:none"
           d="m 16238,11264.1 -152.3,25.6 -89.2,-129.8 -168.8,40.8 -52.4,-167.5 -192.8,37.7 -67.3,-148.3 -191.5,5.9 2.3,72.5 143.1,-4.5 71.1,156.5 185.3,-36.2 53.3,170.4 186.2,-45.1 87.2,126.8 141.1,-23.8 39.8,95.3 66.9,-28 -62,-148.3" /></g><path
         id="path150"
         style="fill:#50bfa5;fill-opacity:1;fill-rule:nonzero;stroke:none"
         d="m 14911.4,13507.2 -139.6,-42.9 -93.7,217 -211.8,-37.4 -96.7,150.9 -76.5,-49 129.4,-201.8 200.7,35.5 97.6,-225.8 210,64.5 -19.4,89" /><path
         id="path152"
         style="fill:#f48c7f;fill-opacity:1;fill-rule:nonzero;stroke:none"
         d="m 10942.2,10621.7 -40,178.8 140.7,-117.6 z m -141.3,586.6 -208.9,-127.1 216.7,-973.6 c 18.7,-84.1 114.6,-125 188.2,-80.2 v 0 c 46.4,28.3 69.4,83 57.2,135.9 l -53,228.6 219.3,133.4 181.2,-151.7 c 41.4,-34.6 100.1,-39 146.2,-11 l 3.9,2.4 c 73.7,44.8 81.5,148.8 15.3,204.1 l -766.1,639.2" /><g
         transform="scale(1.46675)"
         id="g154"><path
           id="path156"
           style="fill:#f7cc7f;fill-opacity:1;fill-rule:nonzero;stroke:none"
           d="m 15899.9,6895.31 c 13.3,47.9 56.3,72.97 103.3,59.92 48.8,-13.54 70.9,-56.68 58.4,-104.83 -13,-47.01 -55.3,-73.26 -104.1,-59.69 -47.9,13.29 -70.7,57.6 -57.6,104.6 z m 58.1,118.2 c 7.3,18.8 4.8,86.13 98.3,150.86 38.5,26.33 70.1,48.72 78.6,79.47 14.7,53.01 -41.1,78.46 -96.7,78.2 -28.7,-0.13 -52.2,22.92 -53.2,51.66 v 0 c -0.9,29.2 21.8,53.66 50.9,55.08 32,1.56 69.5,-1.53 108.9,-12.47 119.3,-33.12 155.2,-114.16 134.4,-189.18 -19.1,-68.69 -74.1,-102.09 -119,-130.52 -75.6,-47.99 -75.5,-101.49 -82,-116.47 l -120.2,33.37" /></g><g
         transform="scale(1.10242)"
         id="g158"><path
           id="path160"
           style="fill:#f7cc7f;fill-opacity:1;fill-rule:nonzero;stroke:none"
           d="m 15929.4,13924.9 c -247.2,0 -370.7,-304.1 -193.9,-478.4 31.8,-31.3 50.4,-73.5 54,-118 l 12.2,-152.9 c 3.4,-42.2 38.6,-74.6 80.9,-74.6 h 93.6 c 42.2,0 77.4,32.4 80.8,74.6 12.3,153.8 5.8,211.4 66.2,270.9 176.8,174.2 53.4,478.4 -193.8,478.4" /></g><g
         transform="scale(1.07557)"
         id="g162"><path
           id="path164"
           style="fill:#fae0b2;fill-opacity:1;fill-rule:nonzero;stroke:none"
           d="m 16273,13549.8 c -0.1,0 -0.1,0 -0.2,0 -12.8,0.2 -22.9,10.6 -22.8,23.3 l 3.7,337.2 -67.3,77.9 c -8.3,9.6 -7.3,24.2 2.4,32.5 9.7,8.3 24.2,7.3 32.5,-2.4 l 78.7,-91.1 -3.9,-354.6 c -0.1,-12.6 -10.4,-22.8 -23.1,-22.8" /></g><g
         transform="scale(1.08767)"
         id="g166"><path
           id="path168"
           style="fill:#fae0b2;fill-opacity:1;fill-rule:nonzero;stroke:none"
           d="m 16206.1,13385.2 c 0.1,0 0.2,0 0.3,0 12.6,0.1 22.6,10.5 22.5,23 l -3.6,333.4 66.5,77.1 c 8.2,9.5 7.2,23.9 -2.4,32.1 -9.5,8.3 -23.9,7.2 -32.2,-2.3 l -77.7,-90.2 3.8,-350.6 c 0.1,-12.5 10.3,-22.5 22.8,-22.5" /></g><g
         transform="scale(1.08685)"
         id="g170"><path
           id="path172"
           style="fill:#96d9c9;fill-opacity:1;fill-rule:nonzero;stroke:none"
           d="m 16015.2,13523.3 c 0.1,-1.3 0.4,-2.5 0.5,-3.8 l 12.4,-155.1 c 3.4,-42.8 39.1,-75.8 82,-75.8 h 94.9 c 42.9,0 78.6,33 82,75.8 5.6,69.3 7.4,119.4 13,158.9 h -284.8" /></g><g
         transform="scale(1.11957)"
         id="g174"><path
           id="path176"
           style="fill:#fae0b2;fill-opacity:1;fill-rule:nonzero;stroke:none"
           d="m 16153.7,14123.8 -210.4,-356.7 356.7,265.3 -146.3,91.4" /></g><g
         transform="scale(1.06554)"
         id="g178"><path
           id="path180"
           style="fill:#fae0b2;fill-opacity:1;fill-rule:nonzero;stroke:none"
           d="m 16074,14936.6 226,-384.9 -38.5,442.1 -187.5,-57.2" /></g><g
         transform="scale(1.04858)"
         id="g182"><path
           id="path184"
           style="fill:#fae0b2;fill-opacity:1;fill-rule:nonzero;stroke:none"
           d="m 15934.6,14618.2 365.4,-143.7 -373,-22.3 7.6,166" /></g><g
         transform="scale(1.11392)"
         id="g186"><path
           id="path188"
           style="fill:#fae0b2;fill-opacity:1;fill-rule:nonzero;stroke:none"
           d="m 16060.9,13276.1 137.9,-174.7 101.2,119.5 -239.1,55.2" /></g><g
         transform="scale(1.129)"
         id="g190"><path
           id="path192"
           style="fill:#fae0b2;fill-opacity:1;fill-rule:nonzero;stroke:none"
           d="m 15982.5,13416.2 308.4,127 9.1,-136 -317.5,9" /></g><g
         transform="scale(1.05109)"
         id="g194"><path
           id="path196"
           style="fill:#fae0b2;fill-opacity:1;fill-rule:nonzero;stroke:none"
           d="m 16300,14040.5 -311.8,-146.2 97.5,-116.9 214.3,263.1" /></g><path
         id="path198"
         style="fill:#96d9c9;fill-opacity:1;fill-rule:nonzero;stroke:none"
         d="m 13234,11923.6 c 18.2,-8 41,-14.5 74,-23.9 87.4,-25 174.1,-14.1 199.8,75.8 24.6,86.2 -42.9,142.4 -139.2,169.9 l -65.9,18.9 z m 108.2,378.8 63.3,-18.1 c 101.4,-29 167.8,-2.8 185.9,60.6 18.5,64.6 -21.2,112.9 -108.6,137.9 -41.8,11.9 -66.6,16.3 -83.8,18.4 z m -97.9,381.4 c 53.6,-4.3 158.4,-26 254.6,-53.5 117.8,-33.7 186.8,-65.8 238.4,-120.2 50.4,-48.7 76.9,-119.3 54.8,-196.6 -21.7,-76 -86.3,-134.2 -192.8,-142.2 l -0.7,-2.5 c 90,-54.5 141.2,-148.6 109.7,-258.8 -22.1,-77.3 -75,-127.9 -140.5,-155.8 -76.2,-31.7 -188,-29.9 -357.8,18.7 -95,27.1 -164.1,53.7 -205.3,72.4 l 239.6,838.5" /><g
         transform="scale(1.3204)"
         id="g200"><path
           id="path202"
           style="fill:#f7cc7f;fill-opacity:1;fill-rule:nonzero;stroke:none"
           d="m 16291.8,9326.39 c 8.2,-35.98 -13.8,-72.16 -49.7,-80.81 -33.4,-8.06 -76.1,-14.39 -125,-16.04 -254.8,-8.59 -391.5,145.57 -398.5,355.56 -8.5,251.56 166.1,397.61 389.3,405.13 44.3,1.5 83.2,-1.79 114.8,-7.28 37.8,-6.6 62.5,-43.67 54.2,-81.26 l -0.5,-2.35 c -7.8,-35.25 -41.9,-58.5 -77.4,-52.16 -23.4,4.17 -49.7,6.48 -78.9,5.5 -132.3,-4.47 -232.4,-87.77 -226.9,-251.83 5,-147.65 95.7,-237.67 244.4,-232.65 24.7,0.83 50.7,4.36 74.6,9.41 36,7.65 71.4,-15.34 79.6,-51.22 v 0" /></g><path
         id="path204"
         style="fill:#466eb6;fill-opacity:1;fill-rule:nonzero;stroke:none"
         d="m 10575.2,7995.1 -226.6,541.3 c -18.7,44.8 3.8,96.1 49.5,112.6 l 55.2,19.9 c 45.6,16.4 95.7,-8.7 109.9,-55 l 171.8,-561.2 z m 23.8,-211 c -23.5,69.8 15.6,148.1 85.5,171.1 72.7,24 139,-11.6 166.6,-84 26.3,-73 -3.1,-145.3 -78.8,-172.6 -76.9,-27.7 -148.1,10.4 -173.3,85.5" /><g
         transform="scale(1.3689)"
         id="g206"><path
           id="path208"
           style="fill:#f48c7f;fill-opacity:1;fill-rule:nonzero;stroke:none"
           d="m 15264.8,6199.38 c 0,0 426.6,-185.92 464.2,-194.17 23.6,-5.19 294.8,275.84 442.6,385.63 6.8,5.12 33.1,42.45 40.4,46.17 88,44.2 -60.7,-210.31 -60.7,-210.31 0,0 -314.5,-400.03 -385.7,-434.29 -89.3,-43.03 -531.1,175.32 -528.4,187.96 l 27.6,219.01" /></g><g
         transform="scale(1.28544)"
         id="g210"><path
           id="path212"
           style="fill:#184655;fill-opacity:1;fill-rule:nonzero;stroke:none"
           d="m 16183.9,7027.11 c 19.5,133.89 112.4,418.85 26.7,532.82 -120.6,160.25 -375.3,153.33 -495.6,-0.63 -55.2,-70.63 -85,-157.14 -114.1,-241.86 -18.8,-54.69 -37.8,-109.69 -64.2,-161.19 -23.7,-46.05 -50.7,-103.62 -95.7,-131.7 -200,-124.55 -424.1,-204.84 -438.5,-485.44 -17.1,-332.81 347.5,-749.24 795.3,-547.68 171.3,77.17 395.9,326.66 469.1,499.29 33.1,77.87 17.2,69.7 -1,188.26 -16.3,106.19 -97.8,240.31 -82,348.13" /></g><g
         transform="scale(1.30503)"
         id="g214"><path
           id="path216"
           style="fill:#355389;fill-opacity:1;fill-rule:nonzero;stroke:none"
           d="m 15700.9,6725.51 599.1,-329.64 -141.3,-214.48 c 0,0 -451,171.87 -542.2,196.47 -91.2,24.67 -19.4,356.62 84.4,347.65" /></g><g
         transform="scale(1.27452)"
         id="g218"><path
           id="path220"
           style="fill:#f7a491;fill-opacity:1;fill-rule:nonzero;stroke:none"
           d="m 16066.3,7179.32 c 0,0 -16,-233.58 -27.9,-299.09 -12.3,-67.63 -19.8,-349.39 120.9,-383.83 140.7,-34.37 87.9,347.11 90.3,415.53 2.2,68.42 16,290.62 16,290.62 l -199.3,-23.23" /></g><g
         transform="scale(1.27183)"
         id="g222"><path
           id="path224"
           style="fill:#f47458;fill-opacity:1;fill-rule:nonzero;stroke:none"
           d="m 16098.2,7166.42 c 10.6,-15.73 23.3,-30.9 38.4,-45.13 52,-48.99 105.4,-64.95 154.2,-58.58 4.4,77.61 9.2,155.05 9.2,155.05 l -199.8,-23.27 c 0,0 -0.8,-10.62 -2,-28.07" /></g><g
         transform="scale(1.28506)"
         id="g226"><path
           id="path228"
           style="fill:#f7a491;fill-opacity:1;fill-rule:nonzero;stroke:none"
           d="m 16078.7,7563.92 c 0,0 -84.8,-2.8 -149.8,-69.8 -64.9,-67 -142.6,-286.06 2.6,-423.1 145.3,-137.03 289,-19.3 318.9,125.6 30,144.9 49.6,351.42 -171.7,367.3" /></g><g
         transform="scale(1.27389)"
         id="g230"><path
           id="path232"
           style="fill:#184655;fill-opacity:1;fill-rule:nonzero;stroke:none"
           d="m 16300,7623.35 c 0,0 -89.3,-230.48 -300.3,-211.01 -95.5,8.79 -117.2,-121.68 -117.2,-121.68 0,0 78.2,309.84 176.4,355.92 98.1,46 241.1,-23.23 241.1,-23.23" /></g><g
         transform="scale(1.25292)"
         id="g234"><path
           id="path236"
           style="fill:#f7a491;fill-opacity:1;fill-rule:nonzero;stroke:none"
           d="m 16295.1,7479.73 c 4.9,-41.11 -13.6,-77.1 -41.4,-80.46 -27.8,-3.27 -54.3,27.38 -59.1,68.48 -4.9,41.11 13.6,77.1 41.4,80.37 27.8,3.36 54.3,-27.29 59.1,-68.39" /></g><g
         transform="scale(1.40189)"
         id="g238"><path
           id="path240"
           style="fill:#b75742;fill-opacity:1;fill-rule:nonzero;stroke:none"
           d="m 15988.4,6616.07 -472.1,-964.7 c -11.2,-22.96 -7.7,-49.71 7.7,-58.78 l 344.9,-201.94 431.1,854.85 c 0,0 -187.8,281.05 -258.3,386.41 -13,19.47 -39.9,11.48 -53.3,-15.84" /></g><g
         transform="scale(1.39733)"
         id="g242"><path
           id="path244"
           style="fill:#fae0b2;fill-opacity:1;fill-rule:nonzero;stroke:none"
           d="m 15627.8,5701.68 412.1,842.11 c 13.5,27.41 40.4,35.49 53.5,15.89 57.4,-85.88 144.2,-215.7 206.6,-309.02 l -388.2,-769.83 -276.3,161.81 c -15.5,9.09 -19,35.92 -7.7,59.04" /></g><g
         transform="scale(1.36677)"
         id="g246"><path
           id="path248"
           style="fill:#f48c7f;fill-opacity:1;fill-rule:nonzero;stroke:none"
           d="m 16207.3,6465.89 c 5,8.7 27.9,27.51 37.6,30.07 20.4,5.41 45.1,4.61 49.2,-8.49 5.9,-19.17 -54.5,-40.39 -54.5,-40.39 l -32.8,-47.63 c 0,0 -15.4,38.93 0.5,66.44" /></g><g
         transform="scale(1.28074)"
         id="g250"><path
           id="path252"
           style="fill:#f7a491;fill-opacity:1;fill-rule:nonzero;stroke:none"
           d="m 15970.6,6909.54 c 0,0 159.1,-131.41 204.7,-177.08 45.4,-45.29 124.7,-100.65 124.7,-100.65 l -128.7,177.95 -81.4,76.05 -119.3,23.73" /></g><g
         transform="scale(1.42427)"
         id="g254"><path
           id="path256"
           style="fill:#f48c7f;fill-opacity:1;fill-rule:nonzero;stroke:none"
           d="m 16137,4319.19 c -22.1,18.47 -42.4,71.2 -50.6,94.3 -48.1,248.9 -275.4,922.01 -523.1,922.01 -215.6,0 -882,-522.58 -1193.6,-824.56 -90,-87.2 -83.9,-13.2 -28.8,-33.56 32.9,-12.15 255.4,-382.23 291,-383.84 108.8,-4.99 209.5,67.89 300.2,118.58 138.5,77.31 234.8,165.42 315.2,285.55 203.8,304.23 280.2,483.27 341.6,599.75 0,0 57.9,-239.49 86.3,-297.28 64.2,-130.38 255.8,-451.67 330.8,-576.85 l 294,8 c 0,0 -134.2,63.89 -163,87.9" /></g><g
         transform="scale(1.44955)"
         id="g258"><path
           id="path260"
           style="fill:#f7a491;fill-opacity:1;fill-rule:nonzero;stroke:none"
           d="m 15310.8,5105.87 c 0,0 -970.3,-452.21 -1031.6,-607.63 -61.2,-155.43 -14.1,-386.26 127.2,-433.38 141.3,-47.12 1017.5,701.87 1017.5,701.87 0,0 113,-207.3 273.2,-348.59 85.4,-75.33 229.7,-136.8 312,-191.92 72.1,-48.36 88.4,-95.41 88.4,-95.41 l 202.5,-9.38 c 0,0 -34.1,11.66 -95.4,94.16 -206.8,278.71 -686.6,926.64 -893.8,890.28" /></g><g
         transform="scale(1.36144)"
         id="g262"><path
           id="path264"
           style="fill:#13375b;fill-opacity:1;fill-rule:nonzero;stroke:none"
           d="m 15902.9,5496.45 c 0,0 331.9,-357.71 397.1,-829.19 0,0 -520,-223.96 -775.7,-359.4 -255.8,-135.37 -541.7,4.99 -631.9,155.5 -90.3,150.43 0,574.24 0,574.24 l 531.6,82.71 478.9,376.14" /></g><g
         transform="scale(1.44186)"
         id="g266"><path
           id="path268"
           style="fill:#355389;fill-opacity:1;fill-rule:nonzero;stroke:none"
           d="m 15759.4,4256.24 c -24.9,9.5 -33.7,-116.79 -37.7,-144.95 -4.7,-31.7 10.4,-53.2 14.3,-55.83 10.3,-7.14 412.6,-15.12 489.5,5.55 5.2,1.39 16.1,7.9 18,9.57 56.5,49.31 -204.9,180.04 -257.5,169.09 -46.9,-9.78 -114.3,-26.22 -226.6,16.57" /></g><g
         transform="scale(1.29702)"
         id="g270"><path
           id="path272"
           style="fill:#466eb6;fill-opacity:1;fill-rule:nonzero;stroke:none"
           d="m 15761,6761.78 c 0,0 -85,0.77 -176,-195.21 -111.9,-240.86 47.7,-1160.04 36.1,-1291.19 0,0 39.4,-45.33 269,-78.49 203.4,-29.37 318.4,115.89 318.4,115.89 0,0 -51.8,354.89 26.6,688.73 42.5,180.95 64.9,356.35 -102.9,518.95 -168,162.68 -371.2,241.32 -371.2,241.32" /></g><g
         transform="scale(1.47113)"
         id="g274"><path
           id="path276"
           style="fill:#466eb6;fill-opacity:1;fill-rule:nonzero;stroke:none"
           d="m 15776.9,4163.88 c -24.5,9.31 -45.6,-109.92 -43.7,-139.08 1.9,-31.33 9.8,-54.11 13.6,-56.69 10.1,-7 404.8,-12.78 480.2,7.48 5.1,1.36 15.8,7.75 17.7,9.38 55.3,48.33 -229.6,169.19 -281.2,158.45 -45.9,-9.52 -76.6,-21.48 -186.6,20.46" /></g><g
         transform="scale(1.43291)"
         id="g278"><path
           id="path280"
           style="fill:#f47458;fill-opacity:1;fill-rule:nonzero;stroke:none"
           d="m 15926.8,6511.93 -765.6,-1114.72 c -17.7,-25.69 -13.5,-57.02 8.7,-65.26 l 517.8,-192.96 612.3,877.8 -305.5,506.24 c -13.8,22.82 -48.3,17.17 -67.7,-11.1" /></g><g
         transform="scale(1.38494)"
         id="g282"><path
           id="path284"
           style="fill:#f7a491;fill-opacity:1;fill-rule:nonzero;stroke:none"
           d="m 16290,5862.98 c -10.1,19.64 -92.4,-23.98 -92.4,-23.98 0,0 -73.2,-12.7 -78.4,-9.96 -5.9,3.03 49.2,7.65 49.2,7.65 0,0 89.9,30.76 88.9,40.8 -4.1,41.52 -60.4,-10.11 -104.6,-11.99 -33.6,-1.44 -70.3,0 -102.7,4.63 -13,7.29 20,23.61 20,23.61 0,0 43.3,19.42 36.3,30.83 -16.8,27.58 -117.9,-24.91 -139.2,-44.41 -14.3,-13.07 -32.1,-38.41 -56.9,-52.49 -108.1,-61.09 -237.7,-166 -390.5,-239.58 -50.6,42.53 -539.1,480.89 -551.4,491.57 l -266.8,-210.11 c 0.4,-0.29 765.3,-582.91 807.9,-581.54 53.4,1.8 372,337.99 458.2,418.14 13,12.13 94.9,21.23 117.4,18.05 50.1,-6.93 143.9,32.35 143.9,32.35 28.9,30.54 -106.6,-0.36 -93.7,7.65 5.7,3.47 38.7,6.86 71.7,11.55 33.6,4.84 64,24.05 68,33.22 8.1,17.98 -75.4,-7.8 -75.4,-7.8 l -69.5,-4.33 66.5,13.57 c 0,0 103.5,33.43 93.5,52.57" /></g><g
         transform="scale(1.29246)"
         id="g286"><path
           id="path288"
           style="fill:#86b1f2;fill-opacity:1;fill-rule:nonzero;stroke:none"
           d="m 15959,6657.54 c -92.4,94.62 -270.2,80.85 -322,-54.16 -14.4,-37.53 -13.8,-145.31 2.7,-184.92 65.7,-158.46 449,-417.35 449,-417.35 l 211.3,287.9 -341,368.53" /></g><path
         id="path290"
         style="fill:#f7a491;fill-opacity:1;fill-rule:nonzero;stroke:none"
         d="m 15717.3,12163.7 c 0,15.7 19.3,116.9 19.3,116.9 0,0 -45,143.5 -49.6,143.8 -92.7,6.7 -162.6,-56.3 -147,-141 l 0.9,-2.8 c 48,-153.2 177.1,-266.9 335.1,-295.2 36,-6.5 74.1,-13.3 113.2,-20.1 -18.4,61.5 -29.7,124.3 -29.1,188.9 -135.4,1 -242.8,3.7 -242.8,9.5" /><g
         transform="scale(1.06052)"
         id="g292"><path
           id="path294"
           style="fill:#355389;fill-opacity:1;fill-rule:nonzero;stroke:none"
           d="m 16298.2,12066.7 c -2.4,7.2 -768.3,-490.9 -768.3,-490.9 0,0 -326.9,-3.2 -568.4,-1.2 -0.6,-72.9 11.2,-143.9 30.4,-213.4 238.6,-45.1 510.5,-92.8 572.3,-88 115.3,8.8 693.3,297.2 693.3,297.2 0,0 42.5,490.9 40.7,496.3" /></g><g
         transform="scale(1.08391)"
         id="g296"><path
           id="path298"
           style="fill:#466eb6;fill-opacity:1;fill-rule:nonzero;stroke:none"
           d="m 15954.8,9986.23 c -1.6,12.24 -159.9,555.17 -176.4,1041.47 -12.9,377.1 103.9,715.2 163.7,776.9 22.2,23.1 227.9,72.5 227.9,72.5 l -74.9,-124.4 c -76.1,-143.7 -96.8,-271 -129.8,-433.1 -95.9,-470.3 334.7,-1411.29 312.8,-1417.36 -24.4,-6.78 -317.2,35.83 -323.3,83.99" /></g><path
         id="path300"
         style="fill:#9bc1f9;fill-opacity:1;fill-rule:nonzero;stroke:none"
         d="m 15513.5,12881.4 -142.5,-93 426.2,-717.4 134,582.5 -417.7,227.9" /><path
         id="path302"
         style="fill:#9bc1f9;fill-opacity:1;fill-rule:nonzero;stroke:none"
         d="m 15601.7,12994.3 179.1,-595.4 143.5,257.2 z" /><g
         transform="scale(1.0382)"
         id="g304"><path
           id="path306"
           style="fill:#9bc1f9;fill-opacity:1;fill-rule:nonzero;stroke:none"
           d="m 16167.3,12582.4 132.7,-481.6 -977.9,88.8 845.2,392.8" /></g><path
         id="path308"
         style="fill:#f7a491;fill-opacity:1;fill-rule:nonzero;stroke:none"
         d="m 16205.7,10947.8 c 0,0 -431.5,-527.1 -432.7,-603.7 -1.7,-110.3 -511.7,-80.1 -401,-32.9 25.5,10.9 105.8,51.5 111.9,56.8 33,28.4 373,693.9 373,693.9 l 348.8,-114.1" /><path
         id="path310"
         style="fill:#07345a;fill-opacity:1;fill-rule:nonzero;stroke:none"
         d="m 15147.3,10260.9 328.1,102 c 0,0 113.2,-57.6 297.6,-20.2 0,0 48.1,-77.3 56.1,-178.4 1.4,-17.4 10,-69.2 -7.3,-71.8 -62.7,-9.7 -236.3,-5.6 -432.1,-10.1 0,0 -263.9,-3.1 -428.8,51.4 -165,54.4 186.4,127.1 186.4,127.1" /><g
         transform="scale(1.13118)"
         id="g312"><path
           id="path314"
           style="fill:#b75742;fill-opacity:1;fill-rule:nonzero;stroke:none"
           d="m 16173.4,9566.97 c 0,0 -343.2,78.41 -663.9,307.83 -371.2,265.5 -788.7,541.6 -953.7,519.1 -132.9,-18.1 -905.4,-1080.45 -905.4,-1080.45 l 374.2,-162.97 676,694.14 c 0,0 690.6,-711.94 917.5,-760.54 516.8,-110.68 681.9,270.36 555.3,482.89" /></g><g
         transform="scale(1.00287)"
         id="g316"><path
           id="path318"
           style="fill:#f7cc7f;fill-opacity:1;fill-rule:nonzero;stroke:none"
           d="m 15307.1,12751.6 587,-1243.6 c 2.7,-5.7 7.7,-9.8 13.8,-11.2 l 392.1,-109 -501.1,1232 -466.7,159.9 c -17.2,5.8 -32.8,-11.7 -25.1,-28.1" /></g><g
         transform="scale(1.10656)"
         id="g320"><path
           id="path322"
           style="fill:#07345a;fill-opacity:1;fill-rule:nonzero;stroke:none"
           d="m 15683.3,12621.6 c 0,0 98.2,134 208,0 0,0 65.3,48.4 123.5,-15.6 0,0 122.2,54.3 177.1,-131.7 0,0 63.8,20.6 82.3,-56 18.5,-76.6 -14.4,-133.4 -14.4,-133.4 0,0 40.2,-22.9 32.6,-96.4 -6.5,-62.6 -55.6,-78.2 -55.6,-78.2 0,0 -0.6,-104.1 -41.1,-140.5 -40.5,-36.5 -102.7,-29.4 -102.7,-29.4 0,0 -9.1,-57.5 -61.5,-59.1 -52.4,-1.6 -122.8,39.6 -177.9,10 -55.2,-29.5 -208.6,-25.2 -208.6,-25.2 0,0 -178.5,53.8 -149.8,232.9 0,0 -99,68.9 -33.5,174.9 0,0 -75.8,143.3 25.2,246.3 101,103.1 196.4,101.4 196.4,101.4" /></g><g
         transform="scale(1.03121)"
         id="g324"><path
           id="path326"
           style="fill:#f7a491;fill-opacity:1;fill-rule:nonzero;stroke:none"
           d="m 16248.1,8991.34 c 0,0 23.2,-628.97 37.5,-735.54 14.4,-105.99 -266.8,-425.52 -230.9,-314.39 8.3,25.6 29.5,110.16 29.6,118.02 0.1,42.18 -104.3,759.78 -104.3,759.78 l 268.1,172.13" /></g><g
         transform="scale(1.0445)"
         id="g328"><path
           id="path330"
           style="fill:#07345a;fill-opacity:1;fill-rule:nonzero;stroke:none"
           d="m 15745.8,7646.45 132.3,301.11 c 0,0 112.7,45.67 201.5,202.39 0,0 86,-13.79 164.1,-71.51 13.5,-9.96 56.3,-36.19 47.4,-50.36 -32.5,-51.42 -144.5,-174.25 -264.1,-318.63 0,0 -163.5,-192.53 -306.4,-277.55 -143,-85.01 25.2,214.55 25.2,214.55" /></g><g
         transform="scale(1.13321)"
         id="g332"><path
           id="path334"
           style="fill:#f47458;fill-opacity:1;fill-rule:nonzero;stroke:none"
           d="m 14535.7,7585.63 c 26.8,27.18 -270.9,1491.47 -126.5,1632.81 144.3,141.33 1108.6,349.46 1108.6,349.46 l 126.5,445.9 c 0,0 403.2,-118.24 566.4,-361.55 89.3,-133.06 -1.9,-436.47 -18.1,-469.97 -137.7,-286.79 -477.9,-301.26 -725.5,-298.72 -227.7,2.34 -632.1,5.49 -632.1,5.49 l -1,-1294.42 c 0,0 -99.5,-24.09 -177.8,-21.09 -107.2,4.15 -120.5,12.09 -120.5,12.09" /></g><g
         transform="scale(1.12892)"
         id="g336"><path
           id="path338"
           style="fill:#ffffff;fill-opacity:1;fill-rule:nonzero;stroke:none"
           d="m 15488.2,11372.1 262.2,94.2 c 0,0 7.8,-0.4 10.2,-0.1 28.2,3.6 337.5,-1008.5 438.5,-1391.4 100.9,-382.87 -31.4,-310.26 -31.4,-310.26 0,0 -231.1,-144.1 -500.3,-154.25 -279.7,-10.55 -223.7,326.6 -223.7,326.6 0,0 -147.3,703.91 -130,943.51 17.2,239.6 174.5,491.7 174.5,491.7" /></g><g
         transform="scale(1.09084)"
         id="g340"><path
           id="path342"
           style="fill:#f7a491;fill-opacity:1;fill-rule:nonzero;stroke:none"
           d="m 16033.2,11982.1 -1.1,-133.5 -0.1,-23.7 c 0,0 -18.5,-228.6 47,-263.9 65.5,-35.3 221,305.5 221,305.5 l -70.4,387.9 -196.4,-272.3" /></g><g
         transform="scale(1.08766)"
         id="g344"><path
           id="path346"
           style="fill:#f47458;fill-opacity:1;fill-rule:nonzero;stroke:none"
           d="m 16300,12163.8 c -32.8,-140.3 -140.9,-237.7 -220.8,-280.3 l 1,133.7 196.9,273 22.9,-126.4" /></g><g
         transform="scale(1.09142)"
         id="g348"><path
           id="path350"
           style="fill:#f7a491;fill-opacity:1;fill-rule:nonzero;stroke:none"
           d="m 16030.2,12641.5 c -127.1,26.5 -246.7,-70.9 -249.3,-198.8 -1.2,-55.6 0.1,-125.1 8.3,-200.3 19.6,-180.9 135.2,-344.6 217.2,-334.2 82,10.3 293.6,155.9 269.3,413.1 -15,158.8 -112.1,292.4 -245.5,320.2" /></g><g
         transform="scale(1.09415)"
         id="g352"><path
           id="path354"
           style="fill:#f7a491;fill-opacity:1;fill-rule:nonzero;stroke:none"
           d="m 16177.4,12262.7 c 5.1,-39.7 35.5,-68.6 67.9,-64.5 32.5,4.2 54.7,39.7 49.7,79.4 -5.1,39.7 -35.4,68.5 -67.9,64.4 -32.5,-4.1 -54.7,-39.6 -49.7,-79.3" /></g><g
         transform="scale(1.0685)"
         id="g356"><path
           id="path358"
           style="fill:#07345a;fill-opacity:1;fill-rule:nonzero;stroke:none"
           d="m 15999.9,12958.5 c -77.8,-79.5 -94.8,-187.4 -38.2,-241 56.7,-53.7 165.6,-32.8 243.4,46.7 77.8,79.4 94.9,187.3 38.2,241 -56.6,53.6 -165.7,32.7 -243.4,-46.7" /></g><g
         transform="scale(1.07488)"
         id="g360"><path
           id="path362"
           style="fill:#07345a;fill-opacity:1;fill-rule:nonzero;stroke:none"
           d="m 16136.6,12854.2 c 3.8,-29.6 42.6,-49 86.6,-43.4 44.1,5.6 76.8,34.1 73.1,63.7 -3.8,29.5 -42.5,49 -86.6,43.4 -44.1,-5.6 -76.8,-34.1 -73.1,-63.7" /></g><g
         transform="scale(1.05966)"
         id="g364"><path
           id="path366"
           style="fill:#07345a;fill-opacity:1;fill-rule:nonzero;stroke:none"
           d="m 16156.9,12777.4 c 4.9,-38.6 39.8,-66 78,-61.1 38.1,4.8 65.1,40 60.2,78.6 -4.9,38.6 -39.8,65.9 -78,61.1 -38.1,-4.8 -65.1,-40 -60.2,-78.6" /></g><g
         transform="scale(1.14368)"
         id="g368"><path
           id="path370"
           style="fill:#466eb6;fill-opacity:1;fill-rule:nonzero;stroke:none"
           d="m 15546.9,11318.3 c 0,0 253.3,41.1 338.4,4.9 54.1,-23.1 123,-482.3 123,-482.3 0,0 2.8,-464.5 34.5,-595.4 107.3,-444.03 257.2,-832.84 240.4,-854.77 -110.2,-90.55 -570.9,-174.49 -606,-131.34 -386.7,476.42 -130.3,2058.91 -130.3,2058.91" /></g><g
         transform="scale(1.12051)"
         id="g372"><path
           id="path374"
           style="fill:#f7a491;fill-opacity:1;fill-rule:nonzero;stroke:none"
           d="m 16300,11071.8 c 0,0 -258.9,-800.2 -372.2,-884.1 -113.2,-83.9 -622.6,701.3 -622.6,701.3 0,0 -225.4,127.9 -241.5,129.3 -63.9,5.3 133.3,38.2 133.3,38.2 l 24.5,204.2 c 0,0 9.6,-1.5 68.5,-67.8 79.6,-89.7 148.8,-228.7 181.3,-252.2 l 341.2,-258.9 173.7,554.5 313.8,-164.5" /></g><g
         transform="scale(1.01099)"
         id="g376"><path
           id="path378"
           style="fill:#fae0b2;fill-opacity:1;fill-rule:nonzero;stroke:none"
           d="m 15672.2,12518.5 118.7,11.6 509.1,-1266.9 -130.9,33.2 -496.9,1222.1" /></g><g
         transform="scale(1.06158)"
         id="g380"><path
           id="path382"
           style="fill:#f7cc7f;fill-opacity:1;fill-rule:nonzero;stroke:none"
           d="m 16003.5,12215.9 291.7,-1420.4 c 4.8,-23.5 -12.7,-45.6 -36.6,-46.3 l -735.4,-22.7 -484.8,1206.4 914.8,311.8 c 22,7.5 45.6,-6 50.3,-28.8" /></g><g
         transform="scale(1.12658)"
         id="g384"><path
           id="path386"
           style="fill:#86b1f2;fill-opacity:1;fill-rule:nonzero;stroke:none"
           d="m 15359.1,10930.2 -87.9,-192.4 c 0,0 431.9,-710.6 565.2,-671.2 133.3,39.4 384.8,809.1 424.2,1021.2 39.4,212.2 -42.4,387.9 -151.5,415.2 -109.1,27.3 -194,-157.6 -227.3,-236.4 -33.3,-78.8 -154.5,-642.4 -154.5,-642.4 l -368.2,306" /></g><path
         id="path388"
         style="fill:#f7a491;fill-opacity:1;fill-rule:nonzero;stroke:none"
         d="m 15573.7,12301.9 c 0,0 -18.2,32 -24.1,51.6 -5.8,19.5 113.9,87.5 161.3,56.5 47.4,-31 -79.2,-78.1 -137.2,-108.1" /><path
         id="path390"
         style="fill:#f7a491;fill-opacity:1;fill-rule:nonzero;stroke:none"
         d="m 15578.7,12223.6 c 0,0 -30.1,31.5 -35.9,51.1 -5.9,19.5 153.5,99.7 200.9,68.7 47.4,-31 -107,-89.9 -165,-119.8" /><path
         id="path392"
         style="fill:#f7a491;fill-opacity:1;fill-rule:nonzero;stroke:none"
         d="m 15633.3,12168.9 c 0,0 -30.1,31.6 -35.9,51.1 -5.9,19.6 113.9,87.5 161.3,56.6 47.4,-31 -67.4,-77.7 -125.4,-107.7" /><g
         transform="scale(1.0523)"
         id="g394"><path
           id="path396"
           style="fill:#f7a491;fill-opacity:1;fill-rule:nonzero;stroke:none"
           d="m 16232.4,11906.2 h -23.6 c -11.2,0 -22.4,1.2 -33.4,3.6 -43.6,9.5 -163,33.2 -172.3,9.4 -11.3,-29.2 171.9,-63.3 171.9,-63.3 0,0 -201,26 -201,-8.1 0,-34.1 204.4,-51.9 204.4,-51.9 0,0 -178.5,6.5 -181.7,-13 -3.3,-19.4 218.9,-74.6 218.9,-74.6 0,0 -180,38.9 -197.8,16.2 -17.9,-22.7 282.2,-132.2 282.2,-132.2 l -67.6,313.9" /></g><path
         id="path398"
         style="fill:#f7a491;fill-opacity:1;fill-rule:nonzero;stroke:none"
         d="m 15633.3,12168.9 c 0,0 103.5,58.5 130.9,40.2 27.3,-18.2 -88.8,-105.8 -88.8,-105.8 l 13.9,-32 c 0,0 -74.2,57.4 -56,97.6" /></g></g></svg>