<?xml version="1.0" encoding="utf-8"?>
<svg id="master-artboard" viewBox="0 0 1400 980" version="1.1" xmlns="http://www.w3.org/2000/svg" x="0px" y="0px" width="1400px" height="980px" style="enable-background:new 0 0 1400 980;">

<path d="M 0 0 H 1400 V 980 H 0 V 0 Z" class="st0" style="fill-rule: evenodd; clip-rule: evenodd; fill: rgb(199, 209, 221); fill-opacity: 0;" transform="matrix(1, 0, 0, 1, 0, 0)"/><path class="st1" d="M1159.5,108.5h-919c-40.4,0-73.4,33-73.4,73.4v621.8c0,40.4,33,73.4,73.4,73.4h919c40.4,0,73.4-33,73.4-73.4&#10;&#9;&#9;V182C1232.9,141.6,1199.9,108.5,1159.5,108.5z" style="fill-rule: evenodd; clip-rule: evenodd; fill: rgb(227, 233, 240);" transform="matrix(1, 0, 0, 1, 0, 0)"/><path d="M 830.2000122070312 877.2000122070312 L 830.2000122070312 826.4000244140625 L 762.9000244140625 877.2000122070312 Z" class="st2" style="fill-rule: evenodd; clip-rule: evenodd; fill: rgb(245, 248, 248);" transform="matrix(1, 0, 0, 1, 0, 0)"/><path d="M 592.7000122070312 877.2000122070312 L 675.7999877929688 877.2000122070312 L 830.2000122070312 760.7000122070312 L 830.2000122070312 241.39999389648438 L 592.7000122070312 420.6000061035156 Z" class="st2" style="fill-rule: evenodd; clip-rule: evenodd; fill: rgb(245, 248, 248);" transform="matrix(1, 0, 0, 1, 0, 0)"/><path d="M 325.20001220703125 877.2000122070312 L 562.5999755859375 877.2000122070312 L 562.5999755859375 443.29998779296875 L 325.20001220703125 622.5 Z" class="st2" style="fill-rule: evenodd; clip-rule: evenodd; fill: rgb(245, 248, 248);" transform="matrix(1, 0, 0, 1, 0, 0)"/><path class="st2" d="M1159.5,108.5h-31.6V536l105-79.2V182C1232.9,141.6,1199.9,108.5,1159.5,108.5z" style="fill-rule: evenodd; clip-rule: evenodd; fill: rgb(245, 248, 248);" transform="matrix(1, 0, 0, 1, 0, 0)"/><path class="st2" d="M1127.9,877.2h31.6c40.4,0,73.4-33,73.4-73.4V522.4l-105,79.2V877.2z" style="fill-rule: evenodd; clip-rule: evenodd; fill: rgb(245, 248, 248);" transform="matrix(1, 0, 0, 1, 0, 0)"/><path d="M 860.2999877929688 877.2000122070312 L 1097.800048828125 877.2000122070312 L 1097.800048828125 624.4000244140625 L 860.2999877929688 803.5999755859375 Z" class="st2" style="fill-rule: evenodd; clip-rule: evenodd; fill: rgb(245, 248, 248);" transform="matrix(1, 0, 0, 1, 0, 0)"/><path d="M 860.2999877929688 218.60000610351562 L 860.2999877929688 737.9000244140625 L 1097.800048828125 558.7000122070312 L 1097.800048828125 108.5 L 1006.2000122070312 108.5 Z" class="st2" style="fill-rule: evenodd; clip-rule: evenodd; fill: rgb(245, 248, 248);" transform="matrix(1, 0, 0, 1, 0, 0)"/><path class="st3" d="M865.7,521.1c-17.8-30.9-56.9-42.3-88.4-26.6H598.8c-38.3,0-69.7,31.4-69.7,69.7v267.1&#10;&#9;&#9;c0,14.6,4.5,28.1,12.3,39.4h308.5c7.7-11.2,12.3-24.8,12.3-39.4v-88.4c16.3,4,34.1,2,49.7-7c32.1-18.5,43.2-60,24.7-92.1&#10;&#9;&#9;L865.7,521.1z" style="fill-rule: evenodd; clip-rule: evenodd; fill: rgb(139, 153, 170);" transform="matrix(1, 0, 0, 1, 0, 0)"/><path class="st4" d="M865.7,521.1c-18.5-32.1-60-43.2-92.1-24.7v0c-19,11-30.6,29.9-33.1,50.3c2.7-2.1,5.5-4.1,8.6-5.9&#10;&#9;&#9;c32.1-18.5,73.6-7.4,92.1,24.7L912,688.2c7.6,13.1,10.2,27.8,8.5,41.8c25.4-20.5,32.9-57.2,16.1-86.2L865.7,521.1z" style="fill-rule: evenodd; clip-rule: evenodd; fill: rgb(114, 128, 145);" transform="matrix(1, 0, 0, 1, 0, 0)"/><path class="st4" d="M777.3,494.5H636.2c-2.6,8.3-4,17.2-4,26.3c0,49.6,41.2,89.9,92,89.9c50.8,0,92-40.2,92-89.9&#10;&#9;&#9;c0-11.8-2.3-23-6.5-33.3C798.8,487.1,787.6,489.3,777.3,494.5z" style="fill-rule: evenodd; clip-rule: evenodd; fill: rgb(114, 128, 145);" transform="matrix(1, 0, 0, 1, 0, 0)"/><path class="st3" d="M617.7,496.4L617.7,496.4c-32.1-18.5-73.6-7.4-92.1,24.7l-70.8,122.7c-18.5,32.1-7.4,73.6,24.7,92.1h0&#10;&#9;&#9;c32.1,18.5,73.6,7.4,92.1-24.7l70.8-122.7C660.9,556.4,649.8,515,617.7,496.4z" style="fill-rule: evenodd; clip-rule: evenodd; fill: rgb(139, 153, 170);" transform="matrix(1, 0, 0, 1, 0, 0)"/><path class="st5" d="M525.6,521.1l-63.7,110.4c30.8,12.9,67.3,1.1,84.4-28.5L610,492.6C579.3,479.8,542.7,491.5,525.6,521.1z" style="fill-rule: evenodd; clip-rule: evenodd; fill: rgb(155, 171, 187);" transform="matrix(1, 0, 0, 1, 0, 0)"/><path class="st0" d="M656,529.7c-9.6-9.6-25.2-9.6-34.8,0c-9.6,9.6-9.6,25.2,0,34.8l32.5,32.5c9.6,9.6,25.2,9.6,34.8,0h0&#10;&#9;&#9;c9.6-9.6,9.6-25.2,0-34.8L656,529.7z" style="fill-rule: evenodd; clip-rule: evenodd; fill: rgb(199, 209, 221);" transform="matrix(1, 0, 0, 1, 0, 0)"/><path class="st0" d="M735.3,529.7l-32.5,32.5c-9.6,9.6-9.6,25.2,0,34.8c9.6,9.6,25.2,9.6,34.8,0l32.5-32.5c9.6-9.6,9.6-25.2,0-34.8&#10;&#9;&#9;C760.6,520.2,744.9,520.2,735.3,529.7z" style="fill-rule: evenodd; clip-rule: evenodd; fill: rgb(199, 209, 221);" transform="matrix(1, 0, 0, 1, 0, 0)"/><path class="st6" d="M756,322.5H635.4c-27.1,0-49.2,22.2-49.2,49.2v114.7c0,48.8,39.9,88.8,88.8,88.8h41.5&#10;&#9;&#9;c48.8,0,88.8-39.9,88.8-88.8V371.8C805.2,344.7,783,322.5,756,322.5z" style="fill-rule: evenodd; clip-rule: evenodd; fill: rgb(242, 155, 84);" transform="matrix(1, 0, 0, 1, 0, 0)"/><path class="st7" d="M655.6,339.3h-57.1c-7.7,8.7-12.3,20.1-12.3,32.5v114.7c0,48.8,39.9,88.8,88.8,88.8h31.3&#10;&#9;&#9;c1.6-8.2,2.4-16.8,2.4-25.5V402.5C708.7,367.7,684.8,339.3,655.6,339.3z" style="fill-rule: evenodd; clip-rule: evenodd; fill: rgb(240, 166, 110);" transform="matrix(1, 0, 0, 1, 0, 0)"/><path class="st8" d="M646.5,472.3c2.4,0.5,4.8,0.8,7.4,0.8c0.7,0,1.4,0,2.1-0.1l19.6-64.5c-2.5-1.9-5.3-3.5-8.3-4.7L646.5,472.3z" style="fill-rule: evenodd; clip-rule: evenodd; fill: rgb(247, 196, 155);" transform="matrix(1, 0, 0, 1, 0, 0)"/><path class="st8" d="M653.9,401.1c-2.5,0-5,0.3-7.4,0.8l-18.3,60.4c4.1,4.2,9.3,7.4,15,9.2l20.9-68.8&#10;&#9;&#9;C660.9,401.6,657.4,401.1,653.9,401.1z" style="fill-rule: evenodd; clip-rule: evenodd; fill: rgb(247, 196, 155);" transform="matrix(1, 0, 0, 1, 0, 0)"/><path class="st8" d="M746.5,402.3L725.6,471c3.7,1.3,7.7,2,11.9,2c1.9,0,3.7-0.1,5.5-0.4l18.9-62&#10;&#9;&#9;C757.5,406.7,752.3,403.8,746.5,402.3z" style="fill-rule: evenodd; clip-rule: evenodd; fill: rgb(247, 196, 155);" transform="matrix(1, 0, 0, 1, 0, 0)"/><path class="st8" d="M746.8,471.8c4.1-1.1,7.9-2.9,11.3-5.3l12.9-42.5c-1.5-3.9-3.7-7.5-6.5-10.7L746.8,471.8z" style="fill-rule: evenodd; clip-rule: evenodd; fill: rgb(247, 196, 155);" transform="matrix(1, 0, 0, 1, 0, 0)"/><path d="M 740.7 509.700012 A 8.7 18.1 0 0 1 732 527.800013 A 8.7 18.1 0 0 1 723.3 509.700012 A 8.7 18.1 0 0 1 732 491.600012 A 8.7 18.1 0 0 1 740.7 509.700012 Z" class="st9" style="fill-rule: evenodd; clip-rule: evenodd; fill: rgb(150, 53, 58);" transform="matrix(1, 0, 0, 1, 0, 0)"/><path class="st9" d="M603.3,329.5L603.3,329.5c-9.1,0-16.5,7.4-16.5,16.5v70.1c0,9.1,7.4,16.5,16.5,16.5h0&#10;&#9;&#9;c9.1,0,16.5-7.4,16.5-16.5V346C619.8,336.9,612.3,329.5,603.3,329.5z" style="fill-rule: evenodd; clip-rule: evenodd; fill: rgb(150, 53, 58);" transform="matrix(1, 0, 0, 1, 0, 0)"/><path class="st9" d="M788.7,329.5c-9.1,0-16.5,7.4-16.5,16.5v70.1c0,9.1,7.4,16.5,16.5,16.5c9.1,0,16.5-7.4,16.5-16.5V346&#10;&#9;&#9;C805.2,336.9,797.8,329.5,788.7,329.5z" style="fill-rule: evenodd; clip-rule: evenodd; fill: rgb(150, 53, 58);" transform="matrix(1, 0, 0, 1, 0, 0)"/><path class="st9" d="M695.4,260.8h-81.9c-31.1,0-56.5,25.4-56.5,56.5c0,31.1,25.4,56.5,56.5,56.5h81.9c31.1,0,56.5-25.4,56.5-56.5&#10;&#9;&#9;C751.9,286.3,726.5,260.8,695.4,260.8z" style="fill-rule: evenodd; clip-rule: evenodd; fill: rgb(150, 53, 58);" transform="matrix(1, 0, 0, 1, 0, 0)"/><path class="st9" d="M792.2,277h-36.4c-23.7,0-43,19.4-43,43c0,23.7,19.4,43,43,43h36.4c23.7,0,43-19.4,43-43&#10;&#9;&#9;C835.2,296.3,815.8,277,792.2,277z" style="fill-rule: evenodd; clip-rule: evenodd; fill: rgb(150, 53, 58);" transform="matrix(1, 0, 0, 1, 0, 0)"/><path d="M 740.999975 448.600006 A 9.9 9.9 0 0 1 731.099976 458.500006 A 9.9 9.9 0 0 1 721.199976 448.600006 A 9.9 9.9 0 0 1 731.099976 438.700006 A 9.9 9.9 0 0 1 740.999975 448.600006 Z" class="st9" style="fill-rule: evenodd; clip-rule: evenodd; fill: rgb(150, 53, 58);" transform="matrix(1, 0, 0, 1, 0, 0)"/><path d="M 670.100012 448.600006 A 9.9 9.9 0 0 1 660.200012 458.500006 A 9.9 9.9 0 0 1 650.300013 448.600006 A 9.9 9.9 0 0 1 660.200012 438.700006 A 9.9 9.9 0 0 1 670.100012 448.600006 Z" class="st9" style="fill-rule: evenodd; clip-rule: evenodd; fill: rgb(150, 53, 58);" transform="matrix(1, 0, 0, 1, 0, 0)"/><path class="st10" d="M651.6,443.7c-0.7,1.2-1.1,2.6-1.3,4.1L651.6,443.7z" style="fill-rule: evenodd; clip-rule: evenodd; fill: rgb(213, 133, 137);" transform="matrix(1, 0, 0, 1, 0, 0)"/><path class="st10" d="M656.5,439.4l-4.5,14.7c1.8,2.6,4.8,4.4,8.2,4.4l0.2,0l5.5-18c-1.6-1.1-3.6-1.8-5.7-1.8&#10;&#9;&#9;C658.9,438.7,657.7,439,656.5,439.4z" style="fill-rule: evenodd; clip-rule: evenodd; fill: rgb(213, 133, 137);" transform="matrix(1, 0, 0, 1, 0, 0)"/><path class="st10" d="M735.2,439.6l-5.7,18.8c0.5,0.1,1.1,0.1,1.6,0.1c5.5,0,9.9-4.4,9.9-9.9C741,444.6,738.6,441.1,735.2,439.6z" style="fill-rule: evenodd; clip-rule: evenodd; fill: rgb(213, 133, 137);" transform="matrix(1, 0, 0, 1, 0, 0)"/><path class="st9" d="M681.8,409.2c-3.6-3.6-8-6.6-12.8-8.6c-4.7-1.9-9.7-3-15.1-3c-5.3,0-10.4,1.1-15.1,3c-4.8,2-9.2,4.9-12.8,8.6&#10;&#9;&#9;c-3.4,3.4-6.2,7.5-8.2,12c-1.6,3.6-2.7,7.5-3.1,11.6l-26.9-18.2c-0.8-0.5-1.9-0.3-2.4,0.5c-0.5,0.8-0.3,1.9,0.5,2.4l28.6,19.3&#10;&#9;&#9;l0,0.2c0,5.3,1.1,10.4,3,15.1c2,4.8,4.9,9.2,8.6,12.8c3.6,3.6,8,6.6,12.8,8.6c4.6,1.9,9.7,3,15.1,3c5.3,0,10.4-1.1,15.1-3&#10;&#9;&#9;c4.8-2,9.2-4.9,12.8-8.6c3.6-3.6,6.6-8,8.6-12.8c1.9-4.6,3-9.7,3-15.1c0-5.3-1.1-10.4-3-15.1C688.3,417.2,685.4,412.8,681.8,409.2z&#10;&#9;&#9; M687.1,450.8c-1.8,4.4-4.5,8.4-7.8,11.7c-3.3,3.3-7.3,6-11.7,7.8c-4.2,1.8-8.9,2.7-13.8,2.7c-4.9,0-9.5-1-13.8-2.7&#10;&#9;&#9;c-4.4-1.8-8.4-4.5-11.7-7.8c-3.3-3.3-6-7.3-7.8-11.7c-1.8-4.2-2.7-8.9-2.7-13.8l0-1.7c0.2-4.5,1.3-8.9,3-12.8&#10;&#9;&#9;c1.8-4.1,4.4-7.8,7.5-10.9c3.3-3.3,7.3-6,11.7-7.8c4.2-1.8,8.9-2.7,13.8-2.7c4.9,0,9.5,1,13.8,2.7c4.4,1.8,8.4,4.5,11.7,7.8&#10;&#9;&#9;c3.3,3.3,6,7.3,7.8,11.7c1.8,4.2,2.7,8.9,2.7,13.8C689.8,442,688.9,446.6,687.1,450.8z" style="fill-rule: evenodd; clip-rule: evenodd; fill: rgb(150, 53, 58);" transform="matrix(1, 0, 0, 1, 0, 0)"/><path class="st9" d="M803.3,414.6l-26.7,18c-0.4-4-1.5-7.8-3-11.3c-2-4.6-4.8-8.7-8.3-12.2c-3.6-3.6-8-6.6-12.8-8.6&#10;&#9;&#9;c-4.6-1.9-9.7-3-15.1-3c-5.3,0-10.4,1.1-15.1,3c-4.8,2-9.2,4.9-12.8,8.6c-3.6,3.6-6.6,8-8.6,12.8c-1.9,4.7-3,9.7-3,15.1&#10;&#9;&#9;c0,5.3,1.1,10.4,3,15.1c2,4.8,4.9,9.2,8.6,12.8c3.6,3.6,8,6.6,12.8,8.6c4.7,1.9,9.7,3,15.1,3c5.3,0,10.4-1.1,15.1-3&#10;&#9;&#9;c4.8-2,9.2-4.9,12.8-8.6c3.6-3.6,6.6-8,8.6-12.8c1.9-4.6,3-9.7,3-15.1l0-0.4l28.4-19.1c0.8-0.5,1-1.6,0.5-2.4&#10;&#9;&#9;C805.2,414.3,804.1,414.1,803.3,414.6z M770.7,450.8c-1.8,4.4-4.5,8.4-7.8,11.7c-3.3,3.3-7.3,6-11.7,7.8c-4.2,1.8-8.9,2.7-13.8,2.7&#10;&#9;&#9;s-9.5-1-13.8-2.7c-4.4-1.8-8.4-4.5-11.7-7.8c-3.3-3.3-6-7.3-7.8-11.7c-1.8-4.2-2.7-8.9-2.7-13.8c0-4.9,1-9.5,2.7-13.8&#10;&#9;&#9;c1.8-4.4,4.5-8.4,7.8-11.7c3.3-3.3,7.3-6,11.7-7.8c4.2-1.8,8.9-2.7,13.8-2.7s9.5,1,13.8,2.7c4.4,1.8,8.4,4.5,11.7,7.8&#10;&#9;&#9;c3.2,3.2,5.8,6.9,7.6,11.1c1.7,4,2.8,8.4,2.9,13c0,0.1,0,0.1,0,0.2l0,1.2C773.4,442,772.5,446.6,770.7,450.8z" style="fill-rule: evenodd; clip-rule: evenodd; fill: rgb(150, 53, 58);" transform="matrix(1, 0, 0, 1, 0, 0)"/><path d="M 609.799988 428.700012 A 22 26.200001 0 0 1 587.799988 454.900013 A 22 26.200001 0 0 1 565.799988 428.700012 A 22 26.200001 0 0 1 587.799988 402.500011 A 22 26.200001 0 0 1 609.799988 428.700012 Z" class="st7" style="fill-rule: evenodd; clip-rule: evenodd; fill: rgb(240, 166, 110);" transform="matrix(1, 0, 0, 1, 0, 0)"/><path d="M 825.599976 428.700012 A 22 26.200001 0 0 1 803.599976 454.900013 A 22 26.200001 0 0 1 781.599976 428.700012 A 22 26.200001 0 0 1 803.599976 402.500011 A 22 26.200001 0 0 1 825.599976 428.700012 Z" class="st6" style="fill-rule: evenodd; clip-rule: evenodd; fill: rgb(242, 155, 84);" transform="matrix(1, 0, 0, 1, 0, 0)"/><path class="st11" d="M667.3,273.5H613c-20.6,0-37.4,16.9-37.4,37.4v0c0,20.6,16.9,37.4,37.4,37.4h54.3c20.6,0,37.4-16.8,37.4-37.4&#10;&#9;&#9;v0C704.7,290.3,687.9,273.5,667.3,273.5z" style="fill-rule: evenodd; clip-rule: evenodd; fill: rgb(169, 81, 86);" transform="matrix(1, 0, 0, 1, 0, 0)"/><path class="st11" d="M701.1,299h-54.3c-20.6,0-37.4,16.9-37.4,37.4v0c0,20.6,16.9,37.4,37.4,37.4h54.3c20.6,0,37.4-16.9,37.4-37.4&#10;&#9;&#9;v0C738.5,315.9,721.7,299,701.1,299z" style="fill-rule: evenodd; clip-rule: evenodd; fill: rgb(169, 81, 86);" transform="matrix(1, 0, 0, 1, 0, 0)"/><path class="st11" d="M796,287.3h-7.3c-16,0-29.2,13.1-29.2,29.2v0c0,16,13.1,29.2,29.2,29.2h7.3c16,0,29.2-13.1,29.2-29.2v0&#10;&#9;&#9;C825.2,300.4,812,287.3,796,287.3z" style="fill-rule: evenodd; clip-rule: evenodd; fill: rgb(169, 81, 86);" transform="matrix(1, 0, 0, 1, 0, 0)"/><path class="st12" d="M1227.8,851.1H163.5c-10.5,0-19.1,8.6-19.1,19.1v0c0,10.5,8.6,19.1,19.1,19.1h1064.3&#10;&#9;&#9;c10.5,0,19.1-8.6,19.1-19.1v0C1247,859.7,1238.4,851.1,1227.8,851.1z" style="fill-rule: evenodd; clip-rule: evenodd; fill: rgb(213, 225, 237);" transform="matrix(1, 0, 0, 1, 0, 0)"/><path class="st13" d="M448.4,851.1H163.5c-10.5,0-19.1,8.6-19.1,19.1v0c0,10.5,8.6,19.1,19.1,19.1h284.9c10.5,0,19.1-8.6,19.1-19.1&#10;&#9;&#9;v0C467.6,859.7,459,851.1,448.4,851.1z" style="fill-rule: evenodd; clip-rule: evenodd; fill: rgb(229, 238, 248);" transform="matrix(1, 0, 0, 1, 0, 0)"/><path class="st14" d="M165.5,824.4c0,10.9,8.9,19.7,19.7,19.7h137.6v-39.5H185.3C174.4,804.7,165.5,813.5,165.5,824.4z" style="fill-rule: evenodd; clip-rule: evenodd; fill: rgb(231, 229, 228);" transform="matrix(1, 0, 0, 1, 0, 0)"/><path d="M 322.899994 804.700012 H 405.799995 V 844.200012 H 322.899994 V 804.700012 Z" class="st15" style="fill-rule: evenodd; clip-rule: evenodd; fill: rgb(175, 176, 175);" transform="matrix(1, 0, 0, 1, 0, 0)"/><path d="M 229.699997 844.099976 H 417.399994 V 850.999976 H 229.699997 V 844.099976 Z" class="st16" style="fill-rule: evenodd; clip-rule: evenodd; fill: rgb(98, 115, 130);" transform="matrix(1, 0, 0, 1, 0, 0)"/><path d="M 229.699997 797.700012 H 417.399994 V 804.600012 H 229.699997 V 797.700012 Z" class="st16" style="fill-rule: evenodd; clip-rule: evenodd; fill: rgb(98, 115, 130);" transform="matrix(1, 0, 0, 1, 0, 0)"/><path class="st3" d="M172.8,810.5c4.5-3.6,10.7-5.8,17.4-5.8h139.5c2.4,0,4.3-1.6,4.3-3.5c0-1.9-1.9-3.5-4.3-3.5H190.2&#10;&#9;&#9;&#9;c-9.2,0-17.5,3-23.6,7.8c-6,4.8-9.8,11.5-9.8,18.9c0,7.3,3.8,14,9.8,18.8c6,4.8,14.4,7.8,23.6,7.8h139.5c2.4,0,4.3-1.6,4.3-3.5&#10;&#9;&#9;&#9;c0-1.9-1.9-3.5-4.3-3.5H190.2c-6.8,0-13-2.2-17.4-5.8c-4.5-3.6-7.3-8.5-7.3-13.9C165.5,819,168.3,814,172.8,810.5z" style="fill-rule: evenodd; clip-rule: evenodd; fill: rgb(139, 153, 170);" transform="matrix(1, 0, 0, 1, 0, 0)"/><path d="M 193 809.900024 H 322.899994 V 813.500024 H 193 V 809.900024 Z" class="st17" style="fill-rule: evenodd; clip-rule: evenodd; fill: rgb(202, 202, 203);" transform="matrix(1, 0, 0, 1, 0, 0)"/><path d="M 322.899994 809.900024 H 405.799995 V 813.500024 H 322.899994 V 809.900024 Z" class="st18" style="fill-rule: evenodd; clip-rule: evenodd; fill: rgb(150, 150, 151);" transform="matrix(1, 0, 0, 1, 0, 0)"/><path d="M 193 816.299988 H 322.899994 V 819.899988 H 193 V 816.299988 Z" class="st17" style="fill-rule: evenodd; clip-rule: evenodd; fill: rgb(202, 202, 203);" transform="matrix(1, 0, 0, 1, 0, 0)"/><path d="M 193 822.599976 H 322.899994 V 826.199975 H 193 V 822.599976 Z" class="st17" style="fill-rule: evenodd; clip-rule: evenodd; fill: rgb(202, 202, 203);" transform="matrix(1, 0, 0, 1, 0, 0)"/><path d="M 193 829 H 322.899994 V 832.6 H 193 V 829 Z" class="st17" style="fill-rule: evenodd; clip-rule: evenodd; fill: rgb(202, 202, 203);" transform="matrix(1, 0, 0, 1, 0, 0)"/><path d="M 193 835.299988 H 322.899994 V 838.899988 H 193 V 835.299988 Z" class="st17" style="fill-rule: evenodd; clip-rule: evenodd; fill: rgb(202, 202, 203);" transform="matrix(1, 0, 0, 1, 0, 0)"/><path d="M 322.899994 816.299988 H 405.799995 V 819.899988 H 322.899994 V 816.299988 Z" class="st18" style="fill-rule: evenodd; clip-rule: evenodd; fill: rgb(150, 150, 151);" transform="matrix(1, 0, 0, 1, 0, 0)"/><path d="M 322.899994 822.599976 H 405.799995 V 826.199975 H 322.899994 V 822.599976 Z" class="st18" style="fill-rule: evenodd; clip-rule: evenodd; fill: rgb(150, 150, 151);" transform="matrix(1, 0, 0, 1, 0, 0)"/><path d="M 322.899994 829 H 405.799995 V 832.6 H 322.899994 V 829 Z" class="st18" style="fill-rule: evenodd; clip-rule: evenodd; fill: rgb(150, 150, 151);" transform="matrix(1, 0, 0, 1, 0, 0)"/><path d="M 322.899994 835.299988 H 405.799995 V 838.899988 H 322.899994 V 835.299988 Z" class="st18" style="fill-rule: evenodd; clip-rule: evenodd; fill: rgb(150, 150, 151);" transform="matrix(1, 0, 0, 1, 0, 0)"/><path class="st14" d="M194.9,771c0,10.9,8.9,19.7,19.7,19.7h97.5v-39.5h-97.5C203.8,751.3,194.9,760.2,194.9,771z" style="fill-rule: evenodd; clip-rule: evenodd; fill: rgb(231, 229, 228);" transform="matrix(1, 0, 0, 1, 0, 0)"/><path d="M 312.100006 751.299988 H 373.900005 V 790.799988 H 312.100006 V 751.299988 Z" class="st15" style="fill-rule: evenodd; clip-rule: evenodd; fill: rgb(175, 176, 175);" transform="matrix(1, 0, 0, 1, 0, 0)"/><path d="M 242.699997 790.799988 H 382.599991 V 797.699988 H 242.699997 V 790.799988 Z" class="st16" style="fill-rule: evenodd; clip-rule: evenodd; fill: rgb(98, 115, 130);" transform="matrix(1, 0, 0, 1, 0, 0)"/><path d="M 242.699997 744.299988 H 382.599991 V 751.199988 H 242.699997 V 744.299988 Z" class="st16" style="fill-rule: evenodd; clip-rule: evenodd; fill: rgb(98, 115, 130);" transform="matrix(1, 0, 0, 1, 0, 0)"/><path class="st3" d="M213.3,751.3h103.9c1.8,0,3.2-1.6,3.2-3.5c0-1.9-1.4-3.5-3.2-3.5H213.3c-6.8,0-13.1,3-17.6,7.8&#10;&#9;&#9;&#9;c-4.5,4.8-7.3,11.5-7.3,18.8c0,7.3,2.8,14,7.3,18.9c4.5,4.8,10.7,7.8,17.6,7.8h103.9c1.8,0,3.2-1.6,3.2-3.5c0-1.9-1.4-3.5-3.2-3.5&#10;&#9;&#9;&#9;H213.3c-5.1,0-9.7-2.2-13-5.8c-3.3-3.6-5.4-8.5-5.4-13.9c0-5.4,2.1-10.4,5.4-13.9C203.6,753.5,208.2,751.3,213.3,751.3z" style="fill-rule: evenodd; clip-rule: evenodd; fill: rgb(139, 153, 170);" transform="matrix(1, 0, 0, 1, 0, 0)"/><path d="M 215.300003 756.599976 H 312.100006 V 760.199975 H 215.300003 V 756.599976 Z" class="st17" style="fill-rule: evenodd; clip-rule: evenodd; fill: rgb(202, 202, 203);" transform="matrix(1, 0, 0, 1, 0, 0)"/><path d="M 312.100006 756.599976 H 373.900005 V 760.199975 H 312.100006 V 756.599976 Z" class="st18" style="fill-rule: evenodd; clip-rule: evenodd; fill: rgb(150, 150, 151);" transform="matrix(1, 0, 0, 1, 0, 0)"/><path d="M 215.300003 762.900024 H 312.100006 V 766.500024 H 215.300003 V 762.900024 Z" class="st17" style="fill-rule: evenodd; clip-rule: evenodd; fill: rgb(202, 202, 203);" transform="matrix(1, 0, 0, 1, 0, 0)"/><path d="M 215.300003 769.200012 H 312.100006 V 772.800012 H 215.300003 V 769.200012 Z" class="st17" style="fill-rule: evenodd; clip-rule: evenodd; fill: rgb(202, 202, 203);" transform="matrix(1, 0, 0, 1, 0, 0)"/><path d="M 215.300003 775.599976 H 312.100006 V 779.199975 H 215.300003 V 775.599976 Z" class="st17" style="fill-rule: evenodd; clip-rule: evenodd; fill: rgb(202, 202, 203);" transform="matrix(1, 0, 0, 1, 0, 0)"/><path d="M 215.300003 781.900024 H 312.100006 V 785.500024 H 215.300003 V 781.900024 Z" class="st17" style="fill-rule: evenodd; clip-rule: evenodd; fill: rgb(202, 202, 203);" transform="matrix(1, 0, 0, 1, 0, 0)"/><path d="M 312.100006 762.900024 H 373.900005 V 766.500024 H 312.100006 V 762.900024 Z" class="st18" style="fill-rule: evenodd; clip-rule: evenodd; fill: rgb(150, 150, 151);" transform="matrix(1, 0, 0, 1, 0, 0)"/><path d="M 312.100006 769.200012 H 373.900005 V 772.800012 H 312.100006 V 769.200012 Z" class="st18" style="fill-rule: evenodd; clip-rule: evenodd; fill: rgb(150, 150, 151);" transform="matrix(1, 0, 0, 1, 0, 0)"/><path d="M 312.100006 775.599976 H 373.900005 V 779.199975 H 312.100006 V 775.599976 Z" class="st18" style="fill-rule: evenodd; clip-rule: evenodd; fill: rgb(150, 150, 151);" transform="matrix(1, 0, 0, 1, 0, 0)"/><path d="M 312.100006 781.900024 H 373.900005 V 785.500024 H 312.100006 V 781.900024 Z" class="st18" style="fill-rule: evenodd; clip-rule: evenodd; fill: rgb(150, 150, 151);" transform="matrix(1, 0, 0, 1, 0, 0)"/><path class="st14" d="M339.5,697.9h-82v39.5h82c10.9,0,19.7-8.9,19.7-19.7C359.2,706.8,350.4,697.9,339.5,697.9z" style="fill-rule: evenodd; clip-rule: evenodd; fill: rgb(231, 229, 228);" transform="matrix(1, 0, 0, 1, 0, 0)"/><path d="M 203.899994 697.900024 H 257.499992 V 737.400024 H 203.899994 V 697.900024 Z" class="st15" style="fill-rule: evenodd; clip-rule: evenodd; fill: rgb(175, 176, 175);" transform="matrix(1, 0, 0, 1, 0, 0)"/><path d="M 196.5 691 H 317.800003 V 697.9 H 196.5 V 691 Z" class="st16" style="fill-rule: evenodd; clip-rule: evenodd; fill: rgb(98, 115, 130);" transform="matrix(1, 0, 0, 1, 0, 0)"/><path d="M 196.5 737.400024 H 317.800003 V 744.300025 H 196.5 V 737.400024 Z" class="st16" style="fill-rule: evenodd; clip-rule: evenodd; fill: rgb(98, 115, 130);" transform="matrix(1, 0, 0, 1, 0, 0)"/><path class="st3" d="M343.3,691h-90.1c-1.5,0-2.8,1.6-2.8,3.5c0,1.9,1.3,3.5,2.8,3.5h90.1c4.4,0,8.4,2.2,11.3,5.8&#10;&#9;&#9;&#9;c2.9,3.6,4.7,8.5,4.7,13.9c0,5.4-1.8,10.4-4.7,13.9c-2.9,3.6-6.9,5.8-11.3,5.8h-90.1c-1.5,0-2.8,1.6-2.8,3.5&#10;&#9;&#9;&#9;c0,1.9,1.3,3.5,2.8,3.5h90.1c5.9,0,11.3-3,15.2-7.8c3.9-4.8,6.3-11.5,6.3-18.9c0-7.3-2.4-14-6.3-18.8&#10;&#9;&#9;&#9;C354.6,694,349.2,691,343.3,691z" style="fill-rule: evenodd; clip-rule: evenodd; fill: rgb(139, 153, 170);" transform="matrix(1, 0, 0, 1, 0, 0)"/><path d="M 257.5 703.200012 H 341.5 V 706.800012 H 257.5 V 703.200012 Z" class="st17" style="fill-rule: evenodd; clip-rule: evenodd; fill: rgb(202, 202, 203);" transform="matrix(1, 0, 0, 1, 0, 0)"/><path d="M 203.899994 703.200012 H 257.499992 V 706.800012 H 203.899994 V 703.200012 Z" class="st18" style="fill-rule: evenodd; clip-rule: evenodd; fill: rgb(150, 150, 151);" transform="matrix(1, 0, 0, 1, 0, 0)"/><path d="M 257.5 709.5 H 341.5 V 713.1 H 257.5 V 709.5 Z" class="st17" style="fill-rule: evenodd; clip-rule: evenodd; fill: rgb(202, 202, 203);" transform="matrix(1, 0, 0, 1, 0, 0)"/><path d="M 257.5 715.900024 H 341.5 V 719.500024 H 257.5 V 715.900024 Z" class="st17" style="fill-rule: evenodd; clip-rule: evenodd; fill: rgb(202, 202, 203);" transform="matrix(1, 0, 0, 1, 0, 0)"/><path d="M 257.5 722.200012 H 341.5 V 725.800012 H 257.5 V 722.200012 Z" class="st17" style="fill-rule: evenodd; clip-rule: evenodd; fill: rgb(202, 202, 203);" transform="matrix(1, 0, 0, 1, 0, 0)"/><path d="M 257.5 728.599976 H 341.5 V 732.199975 H 257.5 V 728.599976 Z" class="st17" style="fill-rule: evenodd; clip-rule: evenodd; fill: rgb(202, 202, 203);" transform="matrix(1, 0, 0, 1, 0, 0)"/><path d="M 203.899994 709.5 H 257.499992 V 713.1 H 203.899994 V 709.5 Z" class="st18" style="fill-rule: evenodd; clip-rule: evenodd; fill: rgb(150, 150, 151);" transform="matrix(1, 0, 0, 1, 0, 0)"/><path d="M 203.899994 715.900024 H 257.499992 V 719.500024 H 203.899994 V 715.900024 Z" class="st18" style="fill-rule: evenodd; clip-rule: evenodd; fill: rgb(150, 150, 151);" transform="matrix(1, 0, 0, 1, 0, 0)"/><path d="M 203.899994 722.200012 H 257.499992 V 725.800012 H 203.899994 V 722.200012 Z" class="st18" style="fill-rule: evenodd; clip-rule: evenodd; fill: rgb(150, 150, 151);" transform="matrix(1, 0, 0, 1, 0, 0)"/><path d="M 203.899994 728.599976 H 257.499992 V 732.199975 H 203.899994 V 728.599976 Z" class="st18" style="fill-rule: evenodd; clip-rule: evenodd; fill: rgb(150, 150, 151);" transform="matrix(1, 0, 0, 1, 0, 0)"/><path class="st19" d="M456.6,457.8L364.8,446l37.9-20.3c3.8-1.7,7.4-3.7,11-5.9l0.1,0l0,0c28-17.4,46.7-48.4,46.7-83.8&#10;&#9;&#9;c0-54.4-44.1-98.6-98.6-98.6c-54.4,0-98.6,44.1-98.6,98.6c0,39.7,23.5,73.9,57.3,89.5c-17.8,10-36.3,20.7-35,20.5&#10;&#9;&#9;c2.3-0.4,91,27,91,27l-22.3,19.9l124.2,7l-69.9-18L456.6,457.8z" style="fill-rule: evenodd; clip-rule: evenodd; fill: rgb(255, 255, 255);" transform="matrix(1, 0, 0, 1, 0, 0)"/><path d="M 398.099987 320.100006 A 39.299999 39.299999 0 0 1 358.799988 359.400005 A 39.299999 39.299999 0 0 1 319.499989 320.100006 A 39.299999 39.299999 0 0 1 358.799988 280.800007 A 39.299999 39.299999 0 0 1 398.099987 320.100006 Z" class="st20" style="fill-rule: evenodd; clip-rule: evenodd; fill: rgb(248, 184, 0);" transform="matrix(1, 0, 0, 1, 0, 0)"/><path class="st17" d="M372,363.2h-26.4c-2,0-3.6,1.6-3.6,3.6v0c0,2,1.6,3.6,3.6,3.6H372c2,0,3.6-1.6,3.6-3.6v0&#10;&#9;&#9;C375.6,364.9,374,363.2,372,363.2z" style="fill-rule: evenodd; clip-rule: evenodd; fill: rgb(202, 202, 203);" transform="matrix(1, 0, 0, 1, 0, 0)"/><path class="st17" d="M372,373.1h-26.4c-2,0-3.6,1.6-3.6,3.6v0c0,2,1.6,3.6,3.6,3.6H372c2,0,3.6-1.6,3.6-3.6v0&#10;&#9;&#9;C375.6,374.7,374,373.1,372,373.1z" style="fill-rule: evenodd; clip-rule: evenodd; fill: rgb(202, 202, 203);" transform="matrix(1, 0, 0, 1, 0, 0)"/><path class="st17" d="M372,383h-26.4c-2,0-3.6,1.6-3.6,3.6c0,2,1.6,3.6,3.6,3.6H372c2,0,3.6-1.6,3.6-3.6&#10;&#9;&#9;C375.6,384.6,374,383,372,383z" style="fill-rule: evenodd; clip-rule: evenodd; fill: rgb(202, 202, 203);" transform="matrix(1, 0, 0, 1, 0, 0)"/><path class="st17" d="M363.4,391.3h-9.2c-2,0-3.6,1.6-3.6,3.6v0c0,2,1.6,3.6,3.6,3.6h9.2c2,0,3.6-1.6,3.6-3.6v0&#10;&#9;&#9;C367,392.9,365.4,391.3,363.4,391.3z" style="fill-rule: evenodd; clip-rule: evenodd; fill: rgb(202, 202, 203);" transform="matrix(1, 0, 0, 1, 0, 0)"/><path d="M 505.79998779296875 820.7999877929688 L 689.2000122070312 852.5999755859375 L 689.2000122070312 630.5 L 490.29998779296875 592.9000244140625 Z" class="st9" style="fill-rule: evenodd; clip-rule: evenodd; fill: rgb(150, 53, 58);" transform="matrix(1, 0, 0, 1, 0, 0)"/><path class="st21" d="M492.2,621.1l13.6,199.7l179.8,31.1C668.8,748.1,593.9,661.6,492.2,621.1z" style="fill-rule: evenodd; clip-rule: evenodd; fill: rgb(132, 37, 44);" transform="matrix(1, 0, 0, 1, 0, 0)"/><path d="M 702.0999755859375 852.5999755859375 L 885.5 820.7999877929688 L 901.0999755859375 592.9000244140625 L 702.0999755859375 630.5 Z" class="st9" style="fill-rule: evenodd; clip-rule: evenodd; fill: rgb(150, 53, 58);" transform="matrix(1, 0, 0, 1, 0, 0)"/><path class="st6" d="M521.7,653.4h-29.8c-39.9,0-72.6,32.7-72.6,72.6c0,39.9,32.7,72.6,72.6,72.6h29.8c39.9,0,72.6-32.7,72.6-72.6&#10;&#9;&#9;C594.3,686.1,561.6,653.4,521.7,653.4z" style="fill-rule: evenodd; clip-rule: evenodd; fill: rgb(242, 155, 84);" transform="matrix(1, 0, 0, 1, 0, 0)"/><path class="st17" d="M518.2,581.3L499,594.6l181.9,34.4l14.8-0.2C664.7,596.2,572.1,577.6,518.2,581.3z" style="fill-rule: evenodd; clip-rule: evenodd; fill: rgb(202, 202, 203);" transform="matrix(1, 0, 0, 1, 0, 0)"/><path class="st17" d="M695.7,628.7l14.8,0.2l181.9-34.4l-19.2-13.3C819.3,577.6,726.7,596.2,695.7,628.7z" style="fill-rule: evenodd; clip-rule: evenodd; fill: rgb(202, 202, 203);" transform="matrix(1, 0, 0, 1, 0, 0)"/><path d="M 680.900024 628.700012 H 710.500025 V 852.500015 H 680.900024 V 628.700012 Z" class="st11" style="fill-rule: evenodd; clip-rule: evenodd; fill: rgb(169, 81, 86);" transform="matrix(1, 0, 0, 1, 0, 0)"/><path class="st6" d="M498,632.5c-8.4,0-15.2,6.8-15.2,15.2v11.3c0,8.4,6.9,15.2,15.2,15.2c8.4,0,15.2-6.9,15.2-15.2v-11.3&#10;&#9;&#9;C513.2,639.4,506.4,632.5,498,632.5z" style="fill-rule: evenodd; clip-rule: evenodd; fill: rgb(242, 155, 84);" transform="matrix(1, 0, 0, 1, 0, 0)"/><path class="st7" d="M526.6,662.3h-20.1c-26.9,0-48.8,22-48.8,48.8c0,26.9,22,48.8,48.8,48.8h20.1c26.9,0,48.8-22,48.8-48.8&#10;&#9;&#9;C575.4,684.2,553.4,662.3,526.6,662.3z" style="fill-rule: evenodd; clip-rule: evenodd; fill: rgb(240, 166, 110);" transform="matrix(1, 0, 0, 1, 0, 0)"/><path class="st22" d="M529.8,667h-14.1c-18.9,0-34.4,15.5-34.4,34.4c0,18.9,15.5,34.4,34.4,34.4h14.1c18.9,0,34.4-15.5,34.4-34.4&#10;&#9;&#9;C564.2,682.5,548.7,667,529.8,667z" style="fill-rule: evenodd; clip-rule: evenodd; fill: rgb(245, 181, 131);" transform="matrix(1, 0, 0, 1, 0, 0)"/><path class="st21" d="M707.7,851.9l179.8-31.1l13.6-199.7C799.4,661.6,724.5,748.1,707.7,851.9z" style="fill-rule: evenodd; clip-rule: evenodd; fill: rgb(132, 37, 44);" transform="matrix(1, 0, 0, 1, 0, 0)"/><path class="st6" d="M893.4,632.5c-8.4,0-15.2,6.8-15.2,15.2v11.3c0,8.4,6.9,15.2,15.2,15.2c8.4,0,15.2-6.9,15.2-15.2v-11.3&#10;&#9;&#9;C908.6,639.4,901.7,632.5,893.4,632.5z" style="fill-rule: evenodd; clip-rule: evenodd; fill: rgb(242, 155, 84);" transform="matrix(1, 0, 0, 1, 0, 0)"/><path class="st6" d="M899.5,653.4h-29.8c-39.9,0-72.6,32.7-72.6,72.6c0,39.9,32.7,72.6,72.6,72.6h29.8c39.9,0,72.6-32.7,72.6-72.6&#10;&#9;&#9;C972,686.1,939.4,653.4,899.5,653.4z" style="fill-rule: evenodd; clip-rule: evenodd; fill: rgb(242, 155, 84);" transform="matrix(1, 0, 0, 1, 0, 0)"/><path class="st7" d="M884.9,662.3h-20.1c-26.9,0-48.8,22-48.8,48.8c0,26.9,22,48.8,48.8,48.8h20.1c26.9,0,48.8-22,48.8-48.8&#10;&#9;&#9;C933.7,684.2,911.7,662.3,884.9,662.3z" style="fill-rule: evenodd; clip-rule: evenodd; fill: rgb(240, 166, 110);" transform="matrix(1, 0, 0, 1, 0, 0)"/><path class="st22" d="M875.7,667h-14.1c-18.9,0-34.4,15.5-34.4,34.4c0,18.9,15.5,34.4,34.4,34.4h14.1c18.9,0,34.4-15.5,34.4-34.4&#10;&#9;&#9;C910.2,682.5,894.7,667,875.7,667z" style="fill-rule: evenodd; clip-rule: evenodd; fill: rgb(245, 181, 131);" transform="matrix(1, 0, 0, 1, 0, 0)"/><path class="st19" d="M817.6,160.7c-20,14.2-24.6,41.9-10.4,61.9c4.2,5.9,9.5,10.4,15.5,13.5l-0.2,0.2l0.4,0&#10;&#9;&#9;&#9;c5,2.6,10.4,4.2,15.9,4.8l-22.1,20.4l23.9-3.7l-20.9,24.8l43.7-35L850,246c0,0,2-2.6,4.9-6.3c5-1.3,9.8-3.6,14.2-6.7&#10;&#9;&#9;&#9;c20-14.2,24.6-41.9,10.4-61.9C865.3,151.1,837.6,146.5,817.6,160.7z" style="fill-rule: evenodd; clip-rule: evenodd; fill: rgb(255, 255, 255);" transform="matrix(1, 0, 0, 1, 0, 0)"/><path class="st23" d="M854.7,190.7l-24.6-4.6c-0.9-0.2-1.9,0.4-2,1.4c-0.2,1,0.4,1.9,1.4,2l22.3,4.2l-10.6,21.3&#10;&#9;&#9;&#9;&#9;c-0.4,0.9-0.1,1.9,0.8,2.3c0.9,0.4,1.9,0.1,2.3-0.8l11.6-23.3c0.1-0.2,0.2-0.3,0.2-0.5C856.3,191.8,855.6,190.9,854.7,190.7z" style="fill-rule: evenodd; clip-rule: evenodd; fill: rgb(97, 96, 96);" transform="matrix(1, 0, 0, 1, 0, 0)"/><path d="M 833.999988 187.899994 A 4.2 4.2 0 0 1 829.799988 192.099994 A 4.2 4.2 0 0 1 825.599988 187.899994 A 4.2 4.2 0 0 1 829.799988 183.699994 A 4.2 4.2 0 0 1 833.999988 187.899994 Z" transform="matrix(0.8145000338554382, -0.5801999568939209, 0.5801999568939209, 0.8145000338554382, 44.9552001953125, 516.2963256835938)" class="st9" style="fill-rule: evenodd; clip-rule: evenodd; fill: rgb(150, 53, 58);"/><path d="M 858.600024 192.5 A 4.2 4.2 0 0 1 854.400024 196.7 A 4.2 4.2 0 0 1 850.200025 192.5 A 4.2 4.2 0 0 1 854.400024 188.3 A 4.2 4.2 0 0 1 858.600024 192.5 Z" transform="matrix(0.8145999908447266, -0.5800999999046326, 0.5800999999046326, 0.8145999908447266, 46.80229949951172, 531.302978515625)" class="st9" style="fill-rule: evenodd; clip-rule: evenodd; fill: rgb(150, 53, 58);"/><path d="M 846.900012 215.800003 A 4.2 4.2 0 0 1 842.700012 220.000003 A 4.2 4.2 0 0 1 838.500012 215.800003 A 4.2 4.2 0 0 1 842.700012 211.600003 A 4.2 4.2 0 0 1 846.900012 215.800003 Z" transform="matrix(0.8145000338554382, -0.5800999999046326, 0.5800999999046326, 0.8145000338554382, 31.089000701904297, 528.9140014648438)" class="st9" style="fill-rule: evenodd; clip-rule: evenodd; fill: rgb(150, 53, 58);"/><path class="st9" d="M735.6,242.3L735.6,242.3c-5.7,0-10.3,4.6-10.3,10.3v29.1c0,5.7,4.6,10.3,10.3,10.3h0&#10;&#9;&#9;c5.7,0,10.3-4.6,10.3-10.3v-29.1C745.9,246.9,741.2,242.3,735.6,242.3z" style="fill-rule: evenodd; clip-rule: evenodd; fill: rgb(150, 53, 58);" transform="matrix(1, 0, 0, 1, 0, 0)"/><path class="st9" d="M763.6,249.2c-4.8-3.1-11.2-1.7-14.2,3.1l-15.7,24.5c-3.1,4.8-1.7,11.2,3.1,14.2c4.8,3.1,11.2,1.7,14.2-3.1&#10;&#9;&#9;l15.7-24.5C769.8,258.6,768.4,252.2,763.6,249.2z" style="fill-rule: evenodd; clip-rule: evenodd; fill: rgb(150, 53, 58);" transform="matrix(1, 0, 0, 1, 0, 0)"/><path class="st3" d="M1160.8,804.9H976.3c-5.9,0-10.7,4.8-10.7,10.7v24.8c0,5.9,4.8,10.7,10.7,10.7h184.5&#10;&#9;&#9;&#9;c5.9,0,10.7-4.8,10.7-10.7v-24.8C1171.5,809.7,1166.7,804.9,1160.8,804.9z" style="fill-rule: evenodd; clip-rule: evenodd; fill: rgb(139, 153, 170);" transform="matrix(1, 0, 0, 1, 0, 0)"/><path class="st16" d="M1160.8,804.9h-82.3v46.2h82.3c5.9,0,10.7-4.8,10.7-10.7v-24.8C1171.5,809.7,1166.7,804.9,1160.8,804.9z" style="fill-rule: evenodd; clip-rule: evenodd; fill: rgb(98, 115, 130);" transform="matrix(1, 0, 0, 1, 0, 0)"/><path d="M 1204 493.1000061035156 L 1107.699951171875 766.9000244140625 L 1115.5 769.5999755859375 L 1211.9000244140625 495.8999938964844 Z" class="st16" style="fill-rule: evenodd; clip-rule: evenodd; fill: rgb(98, 115, 130);" transform="matrix(1, 0, 0, 1, 0, 0)"/><path d="M 1134.199951171875 776.2999877929688 L 1142 779 L 1238.4000244140625 505.29998779296875 L 1230.5 502.5 Z" class="st16" style="fill-rule: evenodd; clip-rule: evenodd; fill: rgb(98, 115, 130);" transform="matrix(1, 0, 0, 1, 0, 0)"/><path d="M 1177.199951 278 H 1185.499951 V 509.600006 H 1177.199951 V 278 Z" transform="matrix(0.8852999806404114, -0.4650999903678894, 0.4650999903678894, 0.8852999806404114, -47.62360000610349, 594.5958862304688)" class="st16" style="fill-rule: evenodd; clip-rule: evenodd; fill: rgb(98, 115, 130);"/><path d="M 1152.300049 291.100006 H 1160.600049 V 522.700012 H 1152.300049 V 291.100006 Z" transform="matrix(0.8852999806404114, -0.4650999903678894, 0.4650999903678894, 0.8852999806404114, -56.55640029907224, 584.542724609375)" class="st16" style="fill-rule: evenodd; clip-rule: evenodd; fill: rgb(98, 115, 130);"/><path d="M 1113.0999755859375 278.3999938964844 L 1026.699951171875 285.79998779296875 L 1027.4000244140625 294.1000061035156 L 1113.800048828125 286.70001220703125 Z" class="st16" style="fill-rule: evenodd; clip-rule: evenodd; fill: rgb(98, 115, 130);" transform="matrix(1, 0, 0, 1, 0, 0)"/><path d="M 1034.5 313.79998779296875 L 1035.0999755859375 322.1000061035156 L 1121.5999755859375 314.70001220703125 L 1120.9000244140625 306.3999938964844 Z" class="st16" style="fill-rule: evenodd; clip-rule: evenodd; fill: rgb(98, 115, 130);" transform="matrix(1, 0, 0, 1, 0, 0)"/><path d="M 1242.399952 499.200012 A 21.200001 21.200001 0 0 1 1221.199951 520.400013 A 21.200001 21.200001 0 0 1 1199.99995 499.200012 A 21.200001 21.200001 0 0 1 1221.199951 478.000011 A 21.200001 21.200001 0 0 1 1242.399952 499.200012 Z" transform="matrix(0.05323158949613571, -0.9986000061035156, 0.9986000061035156, 0.05323158949613571, 657.6842041015625, 1692.0721435546875)" class="st16" style="fill-rule: evenodd; clip-rule: evenodd; fill: rgb(98, 115, 130);"/><path d="M 1232.699951 499.200012 A 11.5 11.5 0 0 1 1221.199951 510.700012 A 11.5 11.5 0 0 1 1209.699951 499.200012 A 11.5 11.5 0 0 1 1221.199951 487.700012 A 11.5 11.5 0 0 1 1232.699951 499.200012 Z" transform="matrix(0.9432000517845154, -0.33230000734329224, 0.33230000734329224, 0.9432000517845154, -96.48570251464841, 434.1164855957031)" class="st3" style="fill-rule: evenodd; clip-rule: evenodd; fill: rgb(139, 153, 170);"/><path d="M 1136.299976 297.799988 A 21.200001 21.200001 0 0 1 1115.099976 318.999989 A 21.200001 21.200001 0 0 1 1093.899975 297.799988 A 21.200001 21.200001 0 0 1 1115.099976 276.599987 A 21.200001 21.200001 0 0 1 1136.299976 297.799988 Z" transform="matrix(0.9432000517845154, -0.33230000734329224, 0.33230000734329224, 0.9432000517845154, -35.609798431396456, 387.45098876953125)" class="st16" style="fill-rule: evenodd; clip-rule: evenodd; fill: rgb(98, 115, 130);"/><path d="M 1126.599976 297.799988 A 11.5 11.5 0 0 1 1115.099976 309.299988 A 11.5 11.5 0 0 1 1103.599976 297.799988 A 11.5 11.5 0 0 1 1115.099976 286.299988 A 11.5 11.5 0 0 1 1126.599976 297.799988 Z" transform="matrix(0.9432000517845154, -0.33230000734329224, 0.33230000734329224, 0.9432000517845154, -35.61169815063474, 387.4320068359375)" class="st3" style="fill-rule: evenodd; clip-rule: evenodd; fill: rgb(139, 153, 170);"/><path d="M 1107.5 772.700012 H 1115.8 V 804.800011 H 1107.5 V 772.700012 Z" class="st16" style="fill-rule: evenodd; clip-rule: evenodd; fill: rgb(98, 115, 130);" transform="matrix(1, 0, 0, 1, 0, 0)"/><path d="M 1134 772.700012 H 1142.3 V 804.800011 H 1134 V 772.700012 Z" class="st16" style="fill-rule: evenodd; clip-rule: evenodd; fill: rgb(98, 115, 130);" transform="matrix(1, 0, 0, 1, 0, 0)"/><path d="M 1146.899952 768.099976 A 21.200001 21.200001 0 0 1 1125.699951 789.299976 A 21.200001 21.200001 0 0 1 1104.49995 768.099976 A 21.200001 21.200001 0 0 1 1125.699951 746.899975 A 21.200001 21.200001 0 0 1 1146.899952 768.099976 Z" transform="matrix(0.1946999877691269, -0.98089998960495, 0.98089998960495, 0.1946999877691269, 153.0998992919922, 1722.638671875)" class="st16" style="fill-rule: evenodd; clip-rule: evenodd; fill: rgb(98, 115, 130);"/><path d="M 1137.199951 768.099976 A 11.5 11.5 0 0 1 1125.699951 779.599976 A 11.5 11.5 0 0 1 1114.199951 768.099976 A 11.5 11.5 0 0 1 1125.699951 756.599976 A 11.5 11.5 0 0 1 1137.199951 768.099976 Z" transform="matrix(0.9432000517845154, -0.3322000205516815, 0.3322000205516815, 0.9432000517845154, -191.23950195312497, 417.6046142578125)" class="st3" style="fill-rule: evenodd; clip-rule: evenodd; fill: rgb(139, 153, 170);"/><path class="st16" d="M1038.7,331.7l16.6-43.8c7.4-19.4-2.5-41.3-21.9-48.7c-19.4-7.4-41.3,2.5-48.7,21.9l-15.8,41.6&#10;&#9;&#9;&#9;C918.2,299.3,869,329,850.1,379l221.5,83.9C1089.6,415.3,1074.9,363.3,1038.7,331.7z" style="fill-rule: evenodd; clip-rule: evenodd; fill: rgb(98, 115, 130);" transform="matrix(1, 0, 0, 1, 0, 0)"/><path class="st3" d="M1033.3,239.2c-19.4-7.4-41.3,2.5-48.7,21.9l-15.8,41.6C918.2,299.3,869,329,850.1,379l25.4,9.6&#10;&#9;&#9;&#9;c19.7-48.2,67.9-76.7,117.6-73.3l15.8-41.6c6.2-16.3,22.7-25.9,39.3-24.2C1044.3,245,1039.2,241.5,1033.3,239.2z" style="fill-rule: evenodd; clip-rule: evenodd; fill: rgb(139, 153, 170);" transform="matrix(1, 0, 0, 1, 0, 0)"/><path class="st13" d="M1227.8,851.1H942.9c-10.5,0-19.1,8.6-19.1,19.1v0c0,10.5,8.6,19.1,19.1,19.1h284.9&#10;&#9;&#9;c10.5,0,19.1-8.6,19.1-19.1v0C1247,859.7,1238.4,851.1,1227.8,851.1z" style="fill-rule: evenodd; clip-rule: evenodd; fill: rgb(229, 238, 248);" transform="matrix(1, 0, 0, 1, 0, 0)"/><path class="st14" d="M1180.9,782.4h-140.5v58.4h140.5c16.1,0,29.2-13.1,29.2-29.2C1210.1,795.6,1197,782.4,1180.9,782.4z" style="fill-rule: evenodd; clip-rule: evenodd; fill: rgb(231, 229, 228);" transform="matrix(1, 0, 0, 1, 0, 0)"/><path d="M 951 782.400024 H 1040.400002 V 840.800026 H 951 V 782.400024 Z" class="st15" style="fill-rule: evenodd; clip-rule: evenodd; fill: rgb(175, 176, 175);" transform="matrix(1, 0, 0, 1, 0, 0)"/><path d="M 938.599976 840.799988 H 1140.999969 V 851.099988 H 938.599976 V 840.799988 Z" class="st16" style="fill-rule: evenodd; clip-rule: evenodd; fill: rgb(98, 115, 130);" transform="matrix(1, 0, 0, 1, 0, 0)"/><path d="M 938.599976 772.200012 H 1140.999969 V 782.500012 H 938.599976 V 772.200012 Z" class="st16" style="fill-rule: evenodd; clip-rule: evenodd; fill: rgb(98, 115, 130);" transform="matrix(1, 0, 0, 1, 0, 0)"/><path class="st3" d="M1183.5,772.2h-150.4c-2.6,0-4.7,2.3-4.7,5.1c0,2.8,2.1,5.1,4.7,5.1h150.4c7.3,0,14,3.3,18.8,8.6&#10;&#9;&#9;&#9;c4.8,5.3,7.8,12.6,7.8,20.6c0,8-3,15.3-7.8,20.6c-4.8,5.3-11.5,8.6-18.8,8.6h-150.4c-2.6,0-4.7,2.3-4.7,5.1c0,2.8,2.1,5.1,4.7,5.1&#10;&#9;&#9;&#9;h150.4c9.9,0,18.9-4.4,25.4-11.6c6.5-7.1,10.6-17,10.6-27.9c0-10.9-4-20.7-10.6-27.9C1202.4,776.6,1193.4,772.2,1183.5,772.2z" style="fill-rule: evenodd; clip-rule: evenodd; fill: rgb(139, 153, 170);" transform="matrix(1, 0, 0, 1, 0, 0)"/><path d="M 1040.5 790.200012 H 1180.600006 V 795.500012 H 1040.5 V 790.200012 Z" class="st17" style="fill-rule: evenodd; clip-rule: evenodd; fill: rgb(202, 202, 203);" transform="matrix(1, 0, 0, 1, 0, 0)"/><path d="M 951 790.200012 H 1040.400002 V 795.500012 H 951 V 790.200012 Z" class="st18" style="fill-rule: evenodd; clip-rule: evenodd; fill: rgb(150, 150, 151);" transform="matrix(1, 0, 0, 1, 0, 0)"/><path d="M 1040.5 799.599976 H 1180.600006 V 804.899976 H 1040.5 V 799.599976 Z" class="st17" style="fill-rule: evenodd; clip-rule: evenodd; fill: rgb(202, 202, 203);" transform="matrix(1, 0, 0, 1, 0, 0)"/><path d="M 1040.5 809 H 1180.600006 V 814.3 H 1040.5 V 809 Z" class="st17" style="fill-rule: evenodd; clip-rule: evenodd; fill: rgb(202, 202, 203);" transform="matrix(1, 0, 0, 1, 0, 0)"/><path d="M 1040.5 818.400024 H 1180.600006 V 823.700025 H 1040.5 V 818.400024 Z" class="st17" style="fill-rule: evenodd; clip-rule: evenodd; fill: rgb(202, 202, 203);" transform="matrix(1, 0, 0, 1, 0, 0)"/><path d="M 1040.5 827.700012 H 1180.600006 V 833.000012 H 1040.5 V 827.700012 Z" class="st17" style="fill-rule: evenodd; clip-rule: evenodd; fill: rgb(202, 202, 203);" transform="matrix(1, 0, 0, 1, 0, 0)"/><path d="M 951 799.599976 H 1040.400002 V 804.899976 H 951 V 799.599976 Z" class="st18" style="fill-rule: evenodd; clip-rule: evenodd; fill: rgb(150, 150, 151);" transform="matrix(1, 0, 0, 1, 0, 0)"/><path d="M 951 809 H 1040.400002 V 814.3 H 951 V 809 Z" class="st18" style="fill-rule: evenodd; clip-rule: evenodd; fill: rgb(150, 150, 151);" transform="matrix(1, 0, 0, 1, 0, 0)"/><path d="M 951 818.400024 H 1040.400002 V 823.700025 H 951 V 818.400024 Z" class="st18" style="fill-rule: evenodd; clip-rule: evenodd; fill: rgb(150, 150, 151);" transform="matrix(1, 0, 0, 1, 0, 0)"/><path d="M 951 827.700012 H 1040.400002 V 833.000012 H 951 V 827.700012 Z" class="st18" style="fill-rule: evenodd; clip-rule: evenodd; fill: rgb(150, 150, 151);" transform="matrix(1, 0, 0, 1, 0, 0)"/><path class="st14" d="M1168,703.5h-156.8v58.4H1168c16.1,0,29.2-13.1,29.2-29.2C1197.2,716.7,1184.1,703.5,1168,703.5z" style="fill-rule: evenodd; clip-rule: evenodd; fill: rgb(231, 229, 228);" transform="matrix(1, 0, 0, 1, 0, 0)"/><path class="st3" d="M1168,693.3h-164.9c-2.8,0-5.1,2.3-5.1,5.1c0,2.8,2.3,5.1,5.1,5.1H1168c8,0,15.3,3.3,20.6,8.6&#10;&#9;&#9;&#9;c5.3,5.3,8.6,12.6,8.6,20.6c0,8-3.3,15.3-8.6,20.6c-5.3,5.3-12.6,8.6-20.6,8.6h-164.9c-2.8,0-5.1,2.3-5.1,5.1&#10;&#9;&#9;&#9;c0,2.8,2.3,5.1,5.1,5.1H1168c10.9,0,20.7-4.4,27.9-11.6c7.1-7.1,11.6-17,11.6-27.9c0-10.9-4.4-20.7-11.6-27.9&#10;&#9;&#9;&#9;C1188.8,697.7,1178.9,693.3,1168,693.3z" style="fill-rule: evenodd; clip-rule: evenodd; fill: rgb(139, 153, 170);" transform="matrix(1, 0, 0, 1, 0, 0)"/><path d="M 1011.200012 711.299988 H 1164.800018 V 716.599988 H 1011.200012 V 711.299988 Z" class="st17" style="fill-rule: evenodd; clip-rule: evenodd; fill: rgb(202, 202, 203);" transform="matrix(1, 0, 0, 1, 0, 0)"/><path d="M 1011.200012 720.700012 H 1164.800018 V 726.000012 H 1011.200012 V 720.700012 Z" class="st17" style="fill-rule: evenodd; clip-rule: evenodd; fill: rgb(202, 202, 203);" transform="matrix(1, 0, 0, 1, 0, 0)"/><path d="M 1011.200012 730.099976 H 1164.800018 V 735.399976 H 1011.200012 V 730.099976 Z" class="st17" style="fill-rule: evenodd; clip-rule: evenodd; fill: rgb(202, 202, 203);" transform="matrix(1, 0, 0, 1, 0, 0)"/><path d="M 1011.200012 739.5 H 1164.800018 V 744.8 H 1011.200012 V 739.5 Z" class="st17" style="fill-rule: evenodd; clip-rule: evenodd; fill: rgb(202, 202, 203);" transform="matrix(1, 0, 0, 1, 0, 0)"/><path d="M 1011.200012 748.799988 H 1164.800018 V 754.099988 H 1011.200012 V 748.799988 Z" class="st17" style="fill-rule: evenodd; clip-rule: evenodd; fill: rgb(202, 202, 203);" transform="matrix(1, 0, 0, 1, 0, 0)"/>
</svg>